<?xml version="1.0" encoding="iso-8859-1"?>
<!-- Generator: Adobe Illustrator 18.1.1, SVG Export Plug-In . SVG Version: 6.00 Build 0)  -->
<svg version="1.1" id="Capa_1" xmlns="http://www.w3.org/2000/svg" xmlns:xlink="http://www.w3.org/1999/xlink" x="0px" y="0px"
	 viewBox="0 0 401.186 401.186" style="enable-background:new 0 0 401.186 401.186;" xml:space="preserve">
<g>
	<path style="fill:#010002;" d="M359.002,156.117c-0.041-0.723-0.179-1.422-0.415-2.105c-0.089-0.26-0.163-0.512-0.268-0.756
		c-0.398-0.862-0.894-1.691-1.593-2.382L208.242,2.382c-0.699-0.699-1.52-1.195-2.382-1.593c-0.244-0.114-0.496-0.179-0.748-0.268
		c-0.691-0.236-1.39-0.374-2.122-0.423C202.82,0.089,202.665,0,202.495,0H50.214c-4.487,0-8.129,3.642-8.129,8.129v384.929
		c0,4.495,3.642,8.129,8.129,8.129h300.757c4.495,0,8.129-3.633,8.129-8.129V156.621
		C359.108,156.443,359.019,156.288,359.002,156.117z M331.357,148.493H210.623V27.751L331.357,148.493z M58.343,384.929V16.257
		h136.015v140.364c0,4.487,3.642,8.129,8.129,8.129h140.356v220.179H58.343z"/>
</g>
<g>
</g>
<g>
</g>
<g>
</g>
<g>
</g>
<g>
</g>
<g>
</g>
<g>
</g>
<g>
</g>
<g>
</g>
<g>
</g>
<g>
</g>
<g>
</g>
<g>
</g>
<g>
</g>
<g>
</g>
</svg>
