<svg width="31" height="45" viewBox="0 0 31 45" fill="none" xmlns="http://www.w3.org/2000/svg">
<path d="M21.7598 33.0289C20.6877 33.0289 19.8071 33.9095 19.8071 34.9816C19.8071 36.0536 20.6877 36.9342 21.7598 36.9342C22.8318 36.9342 23.7124 36.0536 23.7124 34.9816C23.7124 33.8968 22.8318 33.0289 21.7598 33.0289ZM21.7598 35.6324C21.4024 35.6324 21.1089 35.3389 21.1089 34.9816C21.1089 34.6242 21.4024 34.3307 21.7598 34.3307C22.1171 34.3307 22.4106 34.6242 22.4106 34.9816C22.4106 35.3389 22.1171 35.6324 21.7598 35.6324Z" fill="#FF2F00"/>
<path d="M8.72949 33.0289C7.65746 33.0289 6.77686 33.9095 6.77686 34.9816C6.77686 36.0536 7.65746 36.9342 8.72949 36.9342C9.80153 36.9342 10.6821 36.0536 10.6821 34.9816C10.6821 33.8968 9.80153 33.0289 8.72949 33.0289ZM8.72949 35.6324C8.37215 35.6324 8.07861 35.3389 8.07861 34.9816C8.07861 34.6242 8.37215 34.3307 8.72949 34.3307C9.08684 34.3307 9.38037 34.6242 9.38037 34.9816C9.38037 35.3389 9.08684 35.6324 8.72949 35.6324Z" fill="#FF2F00"/>
<path d="M30.4765 0.829552C30.4765 0.81679 30.4765 0.804027 30.4765 0.791265C30.4765 0.778503 30.4765 0.76574 30.4637 0.740215C30.4637 0.727453 30.4637 0.714691 30.4509 0.701928L30.2085 0.76574L30.4509 0.689166C30.4509 0.676404 30.4509 0.663641 30.4382 0.650879C30.4382 0.638117 30.4254 0.625354 30.4254 0.59983C30.4254 0.587067 30.4126 0.574305 30.4126 0.561543C30.4126 0.548781 30.3999 0.536018 30.3999 0.523256L30.1702 0.650879L30.3871 0.523256C30.3871 0.510493 30.3744 0.497731 30.3744 0.484969C30.3744 0.472206 30.3616 0.472206 30.3616 0.459444L30.1446 0.587067L30.3488 0.433919C30.3361 0.421157 30.3361 0.408395 30.3233 0.395632C30.3106 0.38287 30.3105 0.370108 30.2978 0.357345L30.0936 0.510493L30.285 0.344583C30.2723 0.331821 30.2723 0.331821 30.2595 0.319058C30.2467 0.306296 30.234 0.280771 30.2085 0.268009L30.1957 0.255247L30.1829 0.242484C30.1702 0.229722 30.1446 0.204197 30.1319 0.191435C30.1191 0.178673 30.1064 0.178673 30.0936 0.16591C30.0808 0.153148 30.0681 0.153148 30.0553 0.140386C30.0425 0.127623 30.0298 0.127623 30.017 0.114861C30.0043 0.102099 29.9915 0.102099 29.9787 0.0893364C29.966 0.0893364 29.9532 0.076574 29.9404 0.0638117C29.9277 0.0638117 29.9149 0.0510493 29.9022 0.0510493C29.8894 0.0510493 29.8766 0.038287 29.8639 0.038287C29.8511 0.038287 29.8383 0.0255247 29.8256 0.0255247C29.8128 0.0255247 29.8001 0.0255247 29.7873 0.0127623C29.7745 0.0127623 29.7618 0 29.749 0C29.7362 0 29.7235 0 29.7107 0L29.6724 0.255247L29.698 0C29.6852 0 29.6724 0 29.6597 0C29.6341 0 29.6214 0 29.6086 0C29.5959 0 29.5831 0 29.5831 0H0.906126C0.893364 0.0127623 0.893364 0.0127623 0.880601 0.0127623C0.867839 0.0127623 0.842314 0.0127623 0.81679 0.0127623C0.804027 0.0127623 0.791265 0.0127623 0.778503 0.0127623L0.81679 0.268009L0.76574 0.0255247C0.752978 0.0255247 0.740215 0.0255247 0.727453 0.0255247C0.714691 0.0255247 0.701929 0.038287 0.676404 0.038287C0.663642 0.038287 0.650879 0.038287 0.650879 0.0510493C0.638117 0.0510493 0.625354 0.0638117 0.59983 0.0638117C0.587067 0.0638117 0.574305 0.076574 0.561543 0.076574C0.548781 0.0893364 0.536018 0.0893364 0.510493 0.102099C0.497731 0.102099 0.484969 0.114861 0.484969 0.114861C0.472206 0.127623 0.459444 0.127623 0.446682 0.140386L0.574305 0.357345L0.433919 0.140386C0.421157 0.153148 0.408395 0.153148 0.408395 0.16591C0.395632 0.178673 0.38287 0.178673 0.357345 0.191435C0.344583 0.204197 0.344583 0.204197 0.331821 0.21696C0.306296 0.229722 0.293534 0.255247 0.280771 0.268009C0.280771 0.268009 0.268009 0.268009 0.268009 0.280771C0.268009 0.280771 0.268009 0.280771 0.255247 0.293534C0.242484 0.306296 0.21696 0.331821 0.204197 0.344583C0.204197 0.357345 0.191435 0.370108 0.178673 0.370108L0.395632 0.523256L0.178673 0.38287C0.16591 0.395632 0.153148 0.408395 0.153148 0.421157C0.140386 0.433919 0.140386 0.433919 0.127623 0.459444C0.127623 0.472206 0.114861 0.484969 0.114861 0.484969C0.102099 0.497731 0.0893364 0.510493 0.0893364 0.523256L0.319058 0.625354L0.0893364 0.536018C0.0893364 0.54878 0.076574 0.561543 0.076574 0.574305C0.076574 0.587067 0.0638117 0.59983 0.0638117 0.625354C0.0638117 0.638117 0.0510493 0.650879 0.0510493 0.663641C0.0510493 0.676404 0.038287 0.689166 0.038287 0.701928L0.280771 0.76574L0.0255247 0.714691C0.0255247 0.727453 0.0255247 0.740216 0.0127623 0.752978C0.0127623 0.76574 0.0127623 0.778502 0 0.804027C0 0.81679 0 0.829552 0 0.829552C0 0.855077 0 0.893364 0 0.918888V40.1886C0 40.6863 0.408395 41.0947 0.906126 41.0947H6.52155V42.7921C6.52155 44.0045 7.51702 45 8.72944 45C9.94186 45 10.9373 44.0045 10.9373 42.7921V41.0947H19.5519V42.7921C19.5519 44.0045 20.5474 45 21.7598 45C22.9722 45 23.9677 44.0045 23.9677 42.7921V41.0947H29.5831C30.0808 41.0947 30.4892 40.6863 30.4892 40.1886V0.918888C30.4892 0.893364 30.4892 0.855077 30.4765 0.829552ZM22.1554 41.0947V42.7921C22.1554 43.0091 21.9767 43.1877 21.7598 43.1877C21.5428 43.1877 21.3642 43.0091 21.3642 42.7921V41.0947H22.1554ZM9.12507 41.0947V42.7921C9.12507 43.0091 8.9464 43.1877 8.72944 43.1877C8.51248 43.1877 8.33381 43.0091 8.33381 42.7921V41.0947H9.12507ZM25.2694 28.8556V13.5026C25.2694 9.77595 26.4436 6.26631 28.6642 3.33097V28.8556H25.2694ZM1.81225 28.8556V3.33097C4.0329 6.26631 5.20703 9.76319 5.20703 13.5026V28.8556H1.81225ZM23.4572 13.5026V28.8556H7.03205V13.1069C7.03205 13.0686 7.03205 13.0303 7.01929 12.9921C6.90442 8.92087 5.47504 4.99007 2.93534 1.82501H27.5539C24.9121 5.13046 23.4572 9.25269 23.4572 13.5026ZM28.677 30.6679V39.2825H1.81225V30.6679H28.677Z" fill="#FF2F00"/>
</svg>
