<svg width="43" height="41" viewBox="0 0 43 41" fill="none" xmlns="http://www.w3.org/2000/svg">
<path d="M42.7287 13.3801L41.1693 11.7839C40.7353 11.3398 40.1251 11.0761 39.5149 11.0761H37.6978C37.5894 11.0761 37.4809 11.0344 37.3995 10.9512L36.83 10.3543C36.7486 10.2711 36.708 10.16 36.708 10.049C36.708 9.93797 36.7486 9.82693 36.83 9.74365L37.3182 9.244C37.6978 8.85538 37.6978 8.2308 37.3182 7.84218L32.4094 2.81785C32.3687 2.77621 32.3144 2.73457 32.2602 2.69293C30.1719 1.27724 27.7446 0.458356 25.236 0.37508L15.5268 0.000337024C14.998 -0.0135423 14.5505 0.402839 14.5234 0.958014C14.5098 1.36052 14.7268 1.73526 15.0929 1.90181L24.2596 6.09338C25.0326 6.49588 25.7513 6.98166 26.4022 7.56459L24.1512 9.85469C23.9749 10.0351 23.8664 10.285 23.8664 10.5487C23.8664 10.7152 23.9071 10.8818 23.9884 11.0206L1.05805 34.4906C0.366478 35.2262 -0.0132091 36.1977 0.000351114 37.2248C0.0139114 38.2519 0.420719 39.2096 1.13941 39.9174C1.87167 40.6391 2.80732 41 3.74298 41C4.67864 41 5.6143 40.6391 6.34655 39.9174L29.2905 16.4474C29.6566 16.6556 30.1312 16.6001 30.4431 16.2808L31.9076 14.7819C32.0839 14.6153 32.3415 14.6153 32.5043 14.7819L33.0738 15.3648C33.1552 15.4481 33.1958 15.5591 33.1958 15.6701V17.5022C33.1958 18.1407 33.4399 18.7652 33.8874 19.2094L35.4468 20.8055C35.6231 20.9859 35.8672 21.097 36.1249 21.097C36.3825 21.097 36.6266 20.9998 36.8029 20.8055L42.7016 14.768C43.0948 14.3794 43.0948 13.7548 42.7287 13.3801ZM34.4434 13.963L33.8739 13.3662C33.4128 12.8943 32.8162 12.6583 32.2059 12.6583C31.6093 12.6583 30.9991 12.8943 30.538 13.3662L29.7515 14.1712L26.1988 10.5487L28.4633 8.2308C28.843 7.84218 28.843 7.21761 28.4633 6.82899L28.2599 6.6208C27.3378 5.677 26.2666 4.88588 25.0868 4.28906L20.4356 2.16552L25.1546 2.34595C27.27 2.42923 29.3312 3.09544 31.1076 4.28906L35.257 8.53615C34.5247 9.47995 34.5925 10.8679 35.4333 11.7423L36.0028 12.3252C36.4367 12.7694 37.047 13.0331 37.6572 13.0331H39.4471C39.5556 13.0331 39.6641 13.0747 39.7454 13.158L40.6269 14.0601L36.0977 18.6958L35.2299 17.7937C35.1485 17.7104 35.1078 17.5994 35.1078 17.4883V15.6563C35.135 15.0317 34.8909 14.4071 34.4434 13.963ZM27.8938 15.0733L4.99052 38.5156C4.28539 39.2373 3.13277 39.2373 2.42764 38.5156C1.7225 37.7939 1.7225 36.6141 2.42764 35.8924L25.3309 12.4501L27.8938 15.0733Z" fill="#FF2F00"/>
</svg>
