<svg width="57" height="57" viewBox="0 0 57 57" fill="none" xmlns="http://www.w3.org/2000/svg">
<rect y="7" width="50" height="50" rx="10" fill="black"/>
<rect x="7" width="50" height="50" rx="10" fill="#FF2F00"/>
<path d="M37.0378 19.4753V17.5087C37.0321 16.311 36.5524 15.1642 35.7035 14.3193C34.8546 13.4743 33.7056 13 32.5079 13C31.3102 13 30.1612 13.4743 29.3123 14.3193C28.4634 15.1642 27.9836 16.311 27.978 17.5087V19.4753C27.9836 20.673 28.4634 21.8197 29.3123 22.6647C30.1612 23.5096 31.3102 23.9839 32.5079 23.9839C33.7056 23.9839 34.8546 23.5096 35.7035 22.6647C36.5524 21.8197 37.0321 20.673 37.0378 19.4753ZM29.1716 19.4753V17.5087C29.1764 16.627 29.53 15.7831 30.1552 15.1613C30.7803 14.5396 31.6262 14.1905 32.5079 14.1905C33.3896 14.1905 34.2355 14.5396 34.8606 15.1613C35.4858 15.7831 35.8394 16.627 35.8442 17.5087V19.4753C35.8394 20.3569 35.4858 21.2009 34.8606 21.8226C34.2355 22.4444 33.3896 22.7934 32.5079 22.7934C31.6262 22.7934 30.7803 22.4444 30.1552 21.8226C29.53 21.2009 29.1764 20.3569 29.1716 19.4753Z" fill="white"/>
<path d="M25.2062 36.2964H39.8095C39.9678 36.2964 40.1196 36.2335 40.2315 36.1216C40.3434 36.0097 40.4063 35.8579 40.4063 35.6996V34.3298H50.4032C50.5615 34.3298 50.7133 34.267 50.8252 34.1551C50.9371 34.0431 51 33.8913 51 33.7331V29.8596C50.9994 28.723 50.5661 27.6293 49.7882 26.8007C49.0103 25.972 47.9461 25.4705 46.8118 25.3981C46.4936 25.3748 46.3299 25.5763 46.1973 25.7381C45.9332 26.0607 45.5991 26.3187 45.2202 26.4926C44.8413 26.6665 44.4278 26.7515 44.011 26.7414C43.5943 26.7312 43.1854 26.626 42.8155 26.4339C42.4456 26.2417 42.1244 25.9676 41.8764 25.6326C41.8194 25.5554 41.7447 25.4932 41.6586 25.4511C41.5725 25.4089 41.4774 25.3882 41.3816 25.3906C40.6064 25.408 39.8493 25.6288 39.1864 26.031C38.7487 25.522 38.2133 25.1061 37.6119 24.8078C37.0105 24.5095 36.3554 24.335 35.6853 24.2945C35.3769 24.282 35.221 24.4691 35.0699 24.6526C34.7601 25.0311 34.368 25.334 33.9234 25.5381C33.4788 25.7421 32.9935 25.842 32.5045 25.83C32.0155 25.8181 31.5356 25.6947 31.1015 25.4691C30.6674 25.2436 30.2905 24.922 29.9996 24.5287C29.9427 24.4515 29.868 24.3892 29.7819 24.3471C29.6957 24.305 29.6007 24.2843 29.5048 24.2868C28.196 24.3171 26.9515 24.86 26.039 25.7987C25.9636 25.8757 25.8921 25.9556 25.8224 26.0367C25.2062 25.6615 24.5078 25.4423 23.7877 25.3979C23.4705 25.3746 23.3057 25.5761 23.1731 25.7379C22.9091 26.0605 22.5749 26.3185 22.1961 26.4924C21.8172 26.6663 21.4037 26.7513 20.987 26.7412C20.5702 26.731 20.1613 26.6258 19.7914 26.4337C19.4215 26.2415 19.1003 25.9674 18.8524 25.6324C18.7953 25.5553 18.7206 25.4931 18.6345 25.451C18.5484 25.4089 18.4534 25.3881 18.3575 25.3904C17.1919 25.42 16.0839 25.9039 15.2699 26.7388C14.4558 27.5737 14.0002 28.6936 14 29.8596V33.7331C14 33.8913 14.0629 34.0431 14.1748 34.1551C14.2867 34.267 14.4385 34.3298 14.5968 34.3298H24.6095V35.6996C24.6095 35.8579 24.6723 36.0097 24.7842 36.1216C24.8962 36.2335 25.048 36.2964 25.2062 36.2964ZM41.1268 26.603C41.4947 27.0206 41.9471 27.3554 42.454 27.5852C42.9609 27.8149 43.5108 27.9345 44.0674 27.936C44.6239 27.9374 45.1745 27.8207 45.6826 27.5936C46.1907 27.3665 46.6448 27.0341 47.0149 26.6184C47.791 26.7355 48.4993 27.1269 49.0115 27.7216C49.5237 28.3162 49.8057 29.0748 49.8065 29.8596V33.1363H40.4063V29.3079C40.4069 28.5132 40.2178 27.7298 39.8547 27.0228C40.2447 26.7954 40.6781 26.6524 41.1268 26.603ZM29.2476 25.4985C29.6602 25.9762 30.1706 26.3597 30.7443 26.623C31.3179 26.8863 31.9415 27.0234 32.5727 27.0249C33.2039 27.0264 33.8281 26.8923 34.403 26.6317C34.9779 26.3711 35.4901 25.99 35.905 25.5143C36.8213 25.641 37.6609 26.0949 38.2689 26.7921C38.8769 27.4893 39.2123 28.3828 39.2131 29.3079V35.1029H25.803V29.3079C25.8089 28.3607 26.1633 27.4488 26.7987 26.7462C27.434 26.0435 28.3057 25.5994 29.2476 25.4985ZM15.1935 33.1363V29.8596C15.1986 29.0556 15.497 28.281 16.0328 27.6814C16.5686 27.0819 17.3048 26.6985 18.1032 26.6034C18.4711 27.0209 18.9235 27.3555 19.4303 27.5852C19.9372 27.8149 20.487 27.9344 21.0435 27.9358C21.5999 27.9372 22.1504 27.8205 22.6584 27.5934C23.1664 27.3663 23.6204 27.034 23.9905 26.6184C24.4014 26.6799 24.7967 26.8194 25.1552 27.0294C24.7954 27.735 24.6083 28.5159 24.6095 29.3079V33.1363H15.1935Z" fill="white"/>
<path d="M48.0514 21.2529V19.5316C48.0514 18.4602 47.6258 17.4328 46.8683 16.6753C46.1108 15.9178 45.0833 15.4922 44.012 15.4922C42.9407 15.4922 41.9133 15.9178 41.1558 16.6753C40.3982 17.4328 39.9727 18.4602 39.9727 19.5316V21.2529C39.9727 22.3243 40.3982 23.3517 41.1558 24.1092C41.9133 24.8667 42.9407 25.2923 44.012 25.2923C45.0833 25.2923 46.1108 24.8667 46.8683 24.1092C47.6258 23.3517 48.0514 22.3243 48.0514 21.2529ZM41.1662 21.2529V19.5316C41.1662 18.7768 41.466 18.053 41.9997 17.5193C42.5334 16.9856 43.2573 16.6857 44.012 16.6857C44.7668 16.6857 45.4906 16.9856 46.0243 17.5193C46.558 18.053 46.8578 18.7768 46.8578 19.5316V21.2529C46.8578 22.0077 46.558 22.7316 46.0243 23.2652C45.4906 23.7989 44.7668 24.0988 44.012 24.0988C43.2573 24.0988 42.5334 23.7989 41.9997 23.2652C41.466 22.7316 41.1662 22.0077 41.1662 21.2529Z" fill="white"/>
<path d="M25.0275 21.2529V19.5316C25.0275 19.0011 24.923 18.4758 24.72 17.9858C24.517 17.4957 24.2194 17.0504 23.8444 16.6753C23.4693 16.3002 23.024 16.0027 22.5339 15.7997C22.0438 15.5967 21.5186 15.4922 20.9881 15.4922C20.4576 15.4922 19.9324 15.5967 19.4423 15.7997C18.9522 16.0027 18.5069 16.3002 18.1318 16.6753C17.7567 17.0504 17.4592 17.4957 17.2562 17.9858C17.0532 18.4758 16.9487 19.0011 16.9487 19.5316V21.2529C16.9487 21.7834 17.0532 22.3087 17.2562 22.7987C17.4592 23.2888 17.7567 23.7341 18.1318 24.1092C18.5069 24.4843 18.9522 24.7818 19.4423 24.9848C19.9324 25.1878 20.4576 25.2923 20.9881 25.2923C21.5186 25.2923 22.0438 25.1878 22.5339 24.9848C23.024 24.7818 23.4693 24.4843 23.8444 24.1092C24.2194 23.7341 24.517 23.2888 24.72 22.7987C24.923 22.3087 25.0275 21.7834 25.0275 21.2529ZM18.1423 21.2529V19.5316C18.1423 18.7768 18.4421 18.053 18.9758 17.5193C19.5095 16.9856 20.2333 16.6857 20.9881 16.6857C21.7429 16.6857 22.4667 16.9856 23.0004 17.5193C23.5341 18.053 23.8339 18.7768 23.8339 19.5316V21.2529C23.8339 21.6267 23.7603 21.9967 23.6173 22.342C23.4743 22.6873 23.2647 23.001 23.0004 23.2652C22.7361 23.5295 22.4224 23.7391 22.0771 23.8821C21.7319 24.0252 21.3618 24.0988 20.9881 24.0988C20.6144 24.0988 20.2443 24.0252 19.899 23.8821C19.5538 23.7391 19.2401 23.5295 18.9758 23.2652C18.7115 23.001 18.5019 22.6873 18.3589 22.342C18.2159 21.9967 18.1423 21.6267 18.1423 21.2529Z" fill="white"/>
</svg>
