<svg width="48" height="30" viewBox="0 0 48 30" fill="none" xmlns="http://www.w3.org/2000/svg">
<path d="M43.9118 1H11.9744C11.6002 1 11.2968 1.30327 11.2968 1.67755C11.2968 2.05184 11.6002 2.35511 11.9744 2.35511H43.9118C44.9534 2.35511 45.8008 3.20251 45.8008 4.24413V18.6707C45.8008 19.7124 44.9534 20.5597 43.9118 20.5597H42.2894V16.1451C42.2894 15.7708 41.986 15.4675 41.6118 15.4675H6.54403C6.16984 15.4675 5.86647 15.7708 5.86647 16.1451V20.5597H4.24413C3.20251 20.5597 2.35511 19.7124 2.35511 18.6707V4.24413C2.35511 3.20251 3.20251 2.35511 4.24413 2.35511H12.8224C13.1966 2.35511 13.5 2.05184 13.5 1.67755C13.5 1.30327 13.1966 1 12.8224 1H4.24413C2.4553 1 1 2.4553 1 4.24413V18.6707C1 20.4596 2.4553 21.9149 4.24413 21.9149H15.3224C15.6966 21.9149 16 21.6116 16 21.2373C16 20.8631 15.6966 20.5597 15.3224 20.5597H7.22158V19.3687C7.22158 18.5 7.22158 19.0654 7.22158 18.6911C7.22158 18.3169 7.22158 17.4181 7.22158 18.0136V16.8225H40.9343V18.0136C40.9343 17.5 40.9343 18.3169 40.9343 18.6911C40.9343 19.0654 40.9343 20 40.9343 19.3687V20.5597H14.0072C13.6331 20.5597 13.3297 20.8631 13.3297 21.2373C13.3297 21.6116 13.6331 21.9149 14.0072 21.9149H43.9118C45.7007 21.9149 47.1559 20.4596 47.1559 18.6707V4.24413C47.1559 2.45539 45.7006 1 43.9118 1Z" fill="#FF2F00" stroke="#FF2F00"/>
<path d="M13.7454 23.7277C13.3712 23.7277 13.0678 24.031 13.0678 24.4053C13.0678 24.4254 13.0461 26.4341 11.1664 27.77C10.8614 27.9867 10.7899 28.4098 11.0067 28.7148C11.1389 28.9008 11.3476 28.9999 11.5596 28.9999C11.6954 28.9999 11.8325 28.9592 11.9516 28.8745C14.3949 27.1378 14.423 24.5159 14.423 24.4052C14.4229 24.031 14.1196 23.7277 13.7454 23.7277Z" fill="#FF2F00" stroke="#FF2F00"/>
<path d="M18.5967 23.7277C18.2226 23.7277 17.9192 24.031 17.9192 24.4053V28.3223C17.9192 28.6965 18.2226 28.9998 18.5967 28.9998C18.9709 28.9998 19.2743 28.6965 19.2743 28.3223V24.4053C19.2743 24.031 18.9709 23.7277 18.5967 23.7277Z" fill="#FF2F00" stroke="#FF2F00"/>
<path d="M24.2686 23.7277C23.8944 23.7277 23.5911 24.031 23.5911 24.4053V28.3223C23.5911 28.6965 23.8944 28.9998 24.2686 28.9998C24.6428 28.9998 24.9462 28.6965 24.9462 28.3223V24.4053C24.9462 24.031 24.6428 23.7277 24.2686 23.7277Z" fill="#FF2F00" stroke="#FF2F00"/>
<path d="M36.9894 27.77C35.1351 26.452 35.089 24.4924 35.088 24.4022C35.0864 24.0294 34.7837 23.7277 34.4105 23.7277C34.0363 23.7277 33.7329 24.031 33.7329 24.4053C33.7329 24.516 33.761 27.1379 36.2044 28.8746C36.3234 28.9593 36.4606 29 36.5963 29C36.8083 28.9999 37.0171 28.9007 37.1492 28.7149C37.366 28.4098 37.2944 27.9867 36.9894 27.77Z" fill="#FF2F00" stroke="#FF2F00"/>
<path d="M29.5591 23.7277C29.185 23.7277 28.8816 24.031 28.8816 24.4053V28.3223C28.8816 28.6965 29.185 28.9998 29.5591 28.9998C29.9333 28.9998 30.2367 28.6965 30.2367 28.3223V24.4053C30.2367 24.031 29.9333 23.7277 29.5591 23.7277Z" fill="#FF2F00" stroke="#FF2F00"/>
</svg>
