<svg width="28" height="48" viewBox="0 0 28 48" fill="none" xmlns="http://www.w3.org/2000/svg">
<path d="M25.9716 11.0681C25.3206 10.4223 24.9572 9.80795 23.3827 9.80795C23.3827 7.94922 23.5038 5.60217 23.3373 3.61741C23.2616 2.7353 22.8377 1.61691 22.2018 1.14435C21.5659 0.67179 20.4153 0.656038 19.5826 0.860814C18.4926 1.1286 18.0081 2.16823 17.993 3.33388C17.9778 5.4604 17.993 7.58692 17.993 9.7922H9.06056C9.03028 9.25663 9 8.78407 9 8.31151C9 6.62605 9.03028 4.92483 8.98486 3.23937C8.95458 1.99496 8.31871 1.14435 7.19838 0.719046C6.12346 0.309494 5.06368 0.498518 4.3824 1.41213C3.92821 2.02646 3.65569 2.92433 3.61027 3.71193C3.5043 5.74394 3.57999 7.77594 3.57999 9.7607C1.62698 10.1545 0.340104 11.0681 0.0524499 13.0056C-0.220064 14.8486 0.582339 16.156 2.15686 17.0539C2.44452 17.2271 2.67161 17.81 2.67161 18.2038C2.71703 20.5666 2.68675 22.9294 2.70189 25.2764C2.71703 30.4746 5.23022 34.0503 9.96894 35.6885C10.2717 35.7988 10.7411 36.1296 10.7411 36.3501C10.7411 37.7678 11.1801 38.8704 12.3913 39.595C12.4973 39.658 12.5427 39.8943 12.573 40.0676C12.7244 40.8079 12.7849 44.8404 12.7395 46.6519C12.7244 47.1087 13.0877 47.4867 13.5268 47.4867H13.6176C14.0566 47.4867 14.4049 47.1244 14.4049 46.6676C14.42 44.9664 14.4049 41.249 14.3897 40.9024C14.3443 40.1463 14.5714 39.6422 15.1467 39.0909C15.6766 38.5869 16.0551 37.689 16.1308 36.9172C16.2216 36.0823 16.5093 35.7988 17.2057 35.5782C21.5054 34.2393 24.2305 30.4116 24.2608 25.7175C24.2759 23.3074 24.2911 20.9131 24.2608 18.5031C24.2456 17.684 24.397 17.1956 25.1994 16.7546C27.2433 15.6204 27.6218 12.6906 25.9716 11.0681ZM19.8703 3.33388C19.8703 3.25512 19.9157 3.16061 19.9914 3.08185C20.385 2.62504 21.1269 2.68805 21.4448 3.20786C21.5054 3.30237 21.5356 3.38113 21.5356 3.47565C21.6113 5.53916 21.5659 7.61842 21.5659 9.8237H19.8249C19.8249 7.61842 19.7946 5.47615 19.8703 3.33388ZM5.45731 3.39689C5.45731 3.31813 5.50273 3.22361 5.56329 3.14485C5.9115 2.64079 6.63821 2.62504 7.0167 3.0976C7.0924 3.19211 7.13782 3.27087 7.13782 3.36538C7.19838 5.4919 7.15296 7.60267 7.15296 9.80795H5.41189C5.41189 7.61842 5.38162 5.50765 5.45731 3.39689ZM13.557 37.8938C13.1634 37.4685 12.7698 37.0589 12.361 36.6336C12.4518 36.4761 12.5427 36.3186 12.6184 36.1611C13.1634 36.1296 13.7084 36.098 14.2535 36.0823C14.3594 36.1926 14.4503 36.3186 14.5563 36.4288C14.2383 36.9172 13.9053 37.4055 13.557 37.8938ZM22.0807 28.0173C21.5659 31.2464 19.2496 33.2942 16.1308 33.9243C12.8455 34.6016 9.63586 34.4126 6.98642 31.8293C5.60871 30.4903 4.71547 28.8206 4.60949 26.9304C4.44296 23.7957 4.56407 20.6453 4.56407 17.4319H22.6106C22.4592 20.9761 22.6257 24.5518 22.0807 28.0173ZM22.8982 15.4787C19.7643 15.4944 16.6455 15.4787 13.5268 15.4787C10.3928 15.4787 7.27407 15.4787 4.14016 15.4787C2.65647 15.4787 1.82379 14.7856 1.82379 13.6042C1.82379 12.4228 2.65647 11.7612 4.1553 11.7612C10.408 11.7612 16.6607 11.7612 22.9134 11.7612C24.3213 11.7612 25.1389 12.4228 25.1692 13.5569C25.1994 14.7226 24.3516 15.4787 22.8982 15.4787Z" fill="#FF2F00"/>
<path d="M12.3905 24.8354C13.6925 24.8354 14.7069 24.8196 15.7212 24.8354C17.0233 24.8669 17.3715 25.4497 16.7507 26.5839C16.0089 27.9385 15.2822 29.2932 14.4192 30.5534C14.3587 30.6479 14.2678 30.7109 14.177 30.7739C13.5411 31.1519 12.7387 30.5691 12.875 29.8288C12.8901 29.7658 12.9053 29.7185 12.9204 29.6713C13.314 28.7104 13.9045 27.844 14.5555 26.7099C13.2686 26.7099 12.224 26.7414 11.1793 26.7099C9.96817 26.6626 9.61995 26.064 10.2104 24.9929C10.9674 23.6067 11.7244 22.2048 12.5873 20.8974C12.6479 20.8029 12.7387 20.7241 12.8598 20.6611C13.4352 20.3618 14.1164 20.7714 14.1467 21.433C14.1467 21.559 14.1316 21.685 14.0862 21.7953C13.6774 22.7719 13.0718 23.6382 12.3905 24.8354Z" fill="#FF2F00"/>
</svg>
