<svg width="26" height="45" viewBox="0 0 26 45" fill="none" xmlns="http://www.w3.org/2000/svg">
<path d="M3.46313 22.2553V29.7919C3.46313 30.2701 3.85084 30.6577 4.32894 30.6577C4.80704 30.6577 5.19474 30.2701 5.19474 29.7919V22.2553C5.19474 21.7771 4.80704 21.3895 4.32894 21.3895C3.85076 21.3895 3.46313 21.7771 3.46313 22.2553Z" fill="#FF2F00"/>
<path d="M4.32894 10.9998C4.80704 10.9998 5.19474 10.6122 5.19474 10.134V6.06063C5.19474 5.58245 4.80704 5.19482 4.32894 5.19482C3.85084 5.19482 3.46313 5.58245 3.46313 6.06063V10.134C3.46313 10.6122 3.85076 10.9998 4.32894 10.9998Z" fill="#FF2F00"/>
<path d="M23.242 0H2.59741C1.1652 0 0 1.1652 0 2.59741V41.7318C0 43.164 1.1652 44.3292 2.59741 44.3292H23.242C24.6742 44.3292 25.8394 43.164 25.8394 41.7318V40V39.9998L25.8359 30.043C25.8357 29.5649 25.4481 29.1774 24.9701 29.1774H24.9697C24.4916 29.1776 24.1041 29.5654 24.1043 30.0435L24.1076 39.1344H1.73161V19.6578H24.1007L24.0725 31.1116C24.0686 31.5897 24.453 31.9805 24.9312 31.9844H24.9385C25.4133 31.9844 25.8002 31.6014 25.8041 31.1257L25.8394 18.7991C25.8394 18.7978 25.8393 18.7966 25.8393 18.7953C25.8393 18.7942 25.8394 2.59741 25.8394 2.59741C25.8394 1.1652 24.6742 0 23.242 0ZM2.59741 1.73161H23.242C23.7194 1.73161 24.1078 2.12001 24.1078 2.59741V14.463H1.73161V2.59741C1.73161 2.12001 2.12001 1.73161 2.59741 1.73161ZM24.1078 41.7318C24.1078 42.2092 23.7194 42.5976 23.242 42.5976H2.59741C2.12001 42.5976 1.73161 42.2092 1.73161 41.7318V40.866H24.1078V41.7318ZM1.73161 16.1946H24.1078V17.9262H1.73161V16.1946Z" fill="#FF2F00"/>
<path d="M24.9544 27.446C25.4326 27.446 25.8202 27.0584 25.8202 26.5802C25.8202 26.1021 25.4326 25.7144 24.9544 25.7144C24.4763 25.7144 24.0886 26.1021 24.0886 26.5802C24.0886 27.0584 24.4763 27.446 24.9544 27.446Z" fill="#FF2F00"/>
</svg>
