<svg width="79" height="66" viewBox="0 0 79 66" fill="none" xmlns="http://www.w3.org/2000/svg">
<path d="M10.1566 39.1014C9.94865 38.0961 10.1566 37.1602 10.018 36.2936C9.80999 34.7337 10.4686 33.7977 11.6819 32.8271C14.351 30.7819 16.8468 28.4941 19.4467 26.3102C21.3879 24.681 23.3637 23.0518 25.3049 21.3879C28.1474 18.9961 30.9899 16.6042 33.8324 14.2124C35.0803 13.1724 36.3629 12.1325 37.6454 11.0579C37.9228 11.2312 38.2001 11.3699 38.4081 11.5779C41.4239 14.247 44.405 16.9162 47.4208 19.5853C49.4313 21.3879 51.4072 23.1904 53.4177 24.9583C56.0522 27.3155 58.7214 29.638 61.3905 31.9952C61.8411 32.4111 62.2225 32.8964 62.7424 33.2084C63.713 33.7631 63.921 34.595 63.8517 35.6349C63.7823 36.7095 63.8517 37.7841 63.8517 38.928C63.5744 38.9974 63.3664 39.1014 63.1931 39.1014C45.5142 39.1014 27.8701 39.1014 10.1566 39.1014Z" fill="white"/>
<path d="M74.8403 33.4164C73.6617 34.8377 72.3445 35.3923 70.7152 35.011C69.086 34.6297 67.6301 33.867 66.3822 32.7578C63.9903 30.6433 61.5985 28.4941 59.2413 26.3449C57.2308 24.5423 55.2549 22.7398 53.2791 20.9373C51.0259 18.9267 48.7727 16.8815 46.5195 14.871C44.4743 13.0338 42.3945 11.1619 40.3493 9.3247C39.6213 8.66608 38.8587 8.04212 38.0268 7.34884C37.5068 7.73014 36.9868 8.04212 36.5362 8.42343C34.1444 10.434 31.7872 12.4445 29.43 14.455C26.6569 16.8122 23.8837 19.1347 21.1106 21.4572C17.5401 24.473 14.0044 27.5235 10.434 30.5393C9.18605 31.6139 7.93813 32.6885 6.65555 33.7284C5.71961 34.491 4.61036 34.9763 3.3971 35.2883C2.70382 35.4616 2.07986 35.2883 1.52523 34.9763C0.901273 34.6297 0.173322 34.3523 0 33.5551C0.693287 32.5151 36.3282 1.31724 37.9921 0C38.4427 0.346643 38.928 0.693287 39.3787 1.10926C41.8745 3.3971 44.3357 5.68495 46.8315 7.93813C49.6393 10.4686 52.4471 12.9298 55.2549 15.4603C57.3001 17.3322 59.276 19.2387 61.3212 21.1106C63.4357 23.0171 65.5849 24.889 67.6994 26.7955C69.606 28.4941 71.4778 30.2273 73.3844 31.9258C73.8697 32.3765 74.2857 32.8618 74.8403 33.4164Z" fill="white"/>
<path d="M59.7266 62.0491C58.0627 62.7077 56.5722 63.0544 54.943 63.0197C53.4871 56.1562 52.4125 49.3273 51.1299 42.5678C52.1005 42.2558 54.2843 42.1865 55.9136 42.4291C57.4041 48.8767 58.3401 55.4629 59.7266 62.0491Z" fill="white"/>
<path d="M19.4468 63.2624C20.0014 56.2255 20.5214 49.3967 21.0413 42.4985C21.284 42.4638 21.5266 42.4291 21.8733 42.3598C22.0813 43.5384 21.9426 44.6476 21.9079 45.7569C21.8386 47.1088 21.596 48.4261 21.5266 49.7433C21.3187 52.9324 21.1107 56.1215 20.9373 59.3107C20.9027 60.0039 20.8334 60.6626 20.764 61.3905C21.076 61.5292 21.284 61.7025 21.5266 61.7372C22.8439 61.8758 24.1958 62.0491 25.513 62.1185C26.9689 62.1878 27.4542 61.7372 27.7662 60.3506C27.8702 59.9 28.0435 59.4493 28.1822 58.9987C28.3208 58.5134 28.4942 57.9934 28.5635 57.5081C29.0488 54.3537 29.4994 51.1645 29.9847 48.0101C30.2274 46.3462 30.4354 44.6823 30.678 43.0184C30.7127 42.8451 30.782 42.7064 30.8513 42.4291C31.4753 42.4291 32.0993 42.4291 32.8619 42.4291C32.8965 42.7411 32.9659 43.0878 32.9312 43.3997C32.6539 45.5143 32.3766 47.5941 32.0993 49.7086C31.7873 52.0658 31.4753 54.423 31.094 56.7802C30.8513 58.4094 30.574 60.0386 30.262 61.6332C30.1234 62.3265 30.1581 62.8464 30.7127 63.3664C31.406 64.0597 31.1287 64.753 30.1927 64.9263C29.1875 65.0996 28.2515 65.0303 27.2809 64.6836C26.241 64.337 25.0971 64.3023 23.9878 64.0943C22.4626 63.8517 21.0413 63.5397 19.4468 63.2624Z" fill="white"/>
<path d="M40.3841 42.3945C41.424 42.3945 42.2559 42.3945 43.0186 42.3945C43.0879 42.4985 43.1919 42.5678 43.1919 42.6371C43.1572 44.6477 43.8852 46.6235 43.6425 48.6687C43.6079 48.946 43.7812 49.258 43.7465 49.57C43.7118 49.986 43.6079 50.4019 43.5385 50.8179C43.4692 51.1992 43.2959 51.5459 43.3305 51.9272C43.3999 52.9671 43.5385 53.9724 43.6425 55.1509C44.1278 55.5669 44.9251 55.8789 44.7518 57.0228C43.8505 57.6814 42.8799 58.548 41.8053 59.068C40.904 59.484 39.7948 59.5186 38.7895 59.692C37.7149 59.8653 36.6403 60.0039 35.4964 60.1426C35.2884 59.3453 34.8378 58.652 35.3577 57.8201C35.4617 57.6468 35.4964 57.4041 35.4617 57.1961C35.3231 55.7402 35.1498 54.2843 34.9764 52.8284C34.9418 52.5858 34.8378 52.3085 34.6645 52.1351C34.0058 51.4419 33.8325 50.7139 34.3178 49.8126C34.4911 49.4313 34.4218 48.8767 34.3871 48.4261C34.2138 46.4502 33.9712 44.4743 33.7632 42.4291C34.3525 42.4291 34.8378 42.4291 35.4617 42.4291C35.947 44.7516 36.051 47.1088 36.4323 49.5353C38.0269 49.778 39.4828 49.2233 41.112 49.3967C40.8694 46.9702 40.6267 44.7516 40.3841 42.3945ZM36.7443 51.6845C36.8483 53.7297 37.091 55.5669 37.4723 57.3348C38.2002 57.3348 38.8242 57.3695 39.4135 57.3348C40.5574 57.2308 41.632 57.0575 42.1519 55.8096C42.2213 55.6362 42.6026 55.5323 42.6719 55.4976C42.3946 53.8684 42.152 52.5511 41.9093 51.1299C40.1414 51.3379 38.5469 51.5112 36.7443 51.6845Z" fill="white"/>
<path d="M7.21021 47.0741C7.03688 47.2475 6.93289 47.3168 6.93289 47.3515C6.2396 50.0899 5.58098 52.8284 4.8877 55.5322C4.67971 56.3642 4.95702 57.0575 5.30367 57.7854C5.8583 58.9987 5.51165 60.1773 4.36773 61.1132C3.8131 60.5586 4.33307 59.7266 3.8131 58.9987C3.53579 58.964 3.11982 58.86 2.70384 58.8947C1.97589 58.964 1.76791 59.2413 1.69858 60.0039C1.66391 60.3506 1.62925 60.6972 1.59458 61.1825C0.693312 60.4546 0.27734 59.6226 0.242676 58.652C0.242676 58.2361 0.450662 57.6121 0.797305 57.4041C2.77317 56.1909 3.05049 54.111 3.57045 52.1698C4.36773 49.1193 5.13035 46.0342 5.92763 42.9838C5.99695 42.7758 6.06628 42.6024 6.17028 42.3251C7.17554 42.3251 8.14614 42.3251 9.15141 42.3251C9.18607 42.6024 9.2554 42.8104 9.2554 43.0184C9.32473 45.2369 9.39406 47.4208 9.46339 49.6393C9.56738 52.5511 9.63671 55.4283 9.77537 58.3401C9.81003 58.9293 10.0873 59.484 10.226 60.0733C10.3647 60.6279 10.5726 61.1479 10.5726 61.7025C10.5726 62.7078 10.122 63.1584 9.22074 63.2971C8.18081 63.4357 7.24487 62.9504 7.03688 62.0838C6.93289 61.6332 6.89823 61.0439 7.10621 60.6972C7.93816 59.38 7.69551 57.9241 7.66084 56.5028C7.59151 53.8684 7.52218 51.2339 7.41819 48.5994C7.38353 48.1834 7.27953 47.6981 7.21021 47.0741ZM7.66084 61.6332C7.62618 62.2918 7.93816 62.7078 8.56211 62.8118C9.32473 62.9157 9.98335 62.3265 10.0527 61.5292C10.0873 60.8706 9.7407 60.4199 9.15141 60.3506C8.31946 60.3159 7.69551 60.8359 7.66084 61.6332Z" fill="white"/>
<path d="M66.0354 22.1851C65.7928 22.0465 65.5848 21.9771 65.4115 21.8385C63.5049 20.2093 61.6331 18.58 59.6919 16.9855C59.0679 16.4655 58.8252 15.8762 58.8599 15.0789C58.8946 12.8604 58.8599 10.6766 58.8946 8.45805C58.8946 8.2154 58.9292 7.93809 58.9639 7.69544C59.8305 7.38346 64.0249 7.27946 66.0008 7.55678C66.0354 7.76476 66.1741 8.00741 66.1741 8.25006C66.1741 12.7218 66.1741 17.1588 66.1741 21.6305C66.1394 21.7692 66.1048 21.9078 66.0354 22.1851Z" fill="white"/>
<path d="M67.0408 62.5344C66.3822 61.6678 66.4862 60.8705 66.6595 59.9346C68.0114 59.7613 69.3633 59.6226 70.8539 59.4493C70.6806 57.4734 70.5072 55.6016 70.4032 53.7297C70.2993 51.8578 70.2299 50.0206 70.1953 48.1487C70.1953 46.2769 69.6406 44.405 69.9179 42.4291C70.2992 42.3945 70.5766 42.3251 70.8885 42.3251C71.4432 42.3251 71.9978 42.3251 72.6911 42.3251C72.7951 42.9491 72.8991 43.5037 72.9337 44.0584C72.9684 45.2716 72.9337 46.4849 73.0031 47.6981C73.0724 49.0847 73.0724 50.4713 73.2804 51.8232C73.5577 53.7644 73.4884 55.7056 73.523 57.6468C73.523 58.1667 73.5577 58.652 73.5924 59.2413C75.4296 59.7613 77.3708 59.3107 79 60.1079C79 60.7319 78.6187 60.8359 78.3067 60.9052C75.5682 61.6678 72.7604 62.2918 69.8833 62.3265C68.8433 62.3265 67.9074 62.4651 67.0408 62.5344Z" fill="white"/>
<path d="M17.4708 42.3945C18.1988 42.3945 18.7534 42.3945 19.412 42.3945C19.0307 44.5437 17.7828 46.2075 17.0548 48.1487C17.1935 48.4261 17.3322 48.7727 17.4708 49.1193C17.0548 49.674 16.6389 50.2633 16.1882 50.7486C15.6683 51.3379 15.4256 51.9965 15.4603 52.7591C15.5296 53.9723 15.2176 55.0469 14.559 56.0869C14.0737 56.8495 13.5884 57.6121 13.1378 58.4094C12.8605 58.86 12.5485 59.0333 11.9592 58.652C11.7859 57.3001 11.5086 55.8442 11.4046 54.3883C11.3699 53.7644 11.5432 53.1057 11.7859 52.5164C12.4098 50.9912 11.9592 49.57 11.4739 48.0448C12.1325 47.5248 12.2018 46.7622 12.1672 45.8956C12.0978 44.7863 12.1672 43.677 12.1672 42.4291C12.8258 42.3945 13.3804 42.3598 14.0044 42.3251C14.0737 42.7411 14.143 43.0531 14.143 43.3997C14.1777 44.509 14.143 45.6529 14.2124 46.7622C14.247 47.3168 14.351 47.8368 14.4897 48.634C15.8069 46.5195 16.7775 44.5437 17.4708 42.3945ZM14.1084 50.7832C14.6977 50.1939 14.8017 49.5353 14.4204 48.9114C13.8311 49.4313 13.6924 50.2633 14.1084 50.7832Z" fill="white"/>
<path d="M44.509 54.2497C44.197 53.3484 44.5783 52.5165 44.6823 51.6845C44.8903 49.8473 45.1676 48.0101 45.4449 46.1729C45.5142 45.7569 45.6182 45.3063 45.8609 44.9943C46.2075 44.5437 46.7275 44.2663 47.0741 43.8504C47.4208 43.4344 47.6288 42.9144 47.9408 42.3598C48.3567 42.3598 48.842 42.3598 49.3273 42.3598C49.3967 42.6025 49.466 42.8104 49.466 42.9838C49.466 43.8157 49.7433 44.509 50.3673 45.0636C50.9912 45.6183 51.0952 46.2769 50.9912 47.0742C50.7832 48.8767 50.6792 50.6792 50.5059 52.4818C50.4712 52.6898 50.5059 52.8978 50.4712 53.1404C50.3673 54.4923 50.0206 54.839 48.7034 54.7696C47.4554 54.7003 46.2075 54.5616 44.9596 54.423C44.821 54.423 44.6823 54.319 44.509 54.2497Z" fill="white"/>
<path d="M24.4038 46.9008C23.2945 46.4155 23.2252 45.7222 23.4332 44.7863C23.5718 44.0583 23.4678 43.2611 23.4678 42.3945C24.7157 42.2905 25.9983 42.2905 27.3849 42.3945C27.3849 43.5037 27.4195 44.509 27.3849 45.5489C27.3849 45.7916 27.2462 46.0689 27.0729 46.2075C26.6569 46.6235 26.6223 47.1088 26.6223 47.6288C26.6569 50.2979 26.6569 53.0017 26.6916 55.6709C26.6916 56.0869 26.7609 56.5028 26.7956 57.0228C26.1023 57.0228 25.4783 57.0228 24.7504 57.0228C24.6464 55.3589 24.5077 53.695 24.4731 52.0311C24.3691 50.3673 24.4038 48.6687 24.4038 46.9008Z" fill="white"/>
<path d="M60.1427 59.8653C59.7267 58.1667 60.2466 46.1729 60.8706 42.3945C61.4946 42.3945 62.1532 42.3945 62.8811 42.3945C62.9158 42.6718 62.9851 42.8798 62.9851 43.0878C62.9158 44.3357 62.8118 45.5836 62.7425 46.8315C62.6731 47.9408 62.5692 49.0847 62.5345 50.1939C62.4305 52.8284 62.3612 55.4629 62.2572 58.0974C62.2572 58.1667 62.2572 58.2707 62.2572 58.3401C62.0839 59.8653 61.7719 60.1079 60.1427 59.8653Z" fill="white"/>
<path d="M64.3715 42.3945C65.7234 42.3945 66.8674 42.3945 68.0806 42.3945C68.1499 42.6025 68.2539 42.8104 68.2539 42.9838C68.2539 44.4397 68.2539 45.9302 68.2539 47.3861C68.2539 47.6288 68.2886 47.9408 68.1846 48.1487C67.5953 49.05 67.7686 50.0553 67.8033 51.0606C67.838 51.8232 67.6993 52.4125 66.9367 52.7591C66.5554 52.9324 66.2434 53.2097 65.7581 53.5564C65.6541 53.0711 65.5501 52.7591 65.5155 52.4471C65.4808 51.8925 65.4808 51.3379 65.4461 50.7486C65.4115 50.4366 65.4461 50.0553 65.2728 49.882C64.5795 49.1193 64.7182 48.2181 64.6835 47.3168C64.6835 47.0742 64.7528 46.7622 64.6142 46.5542C63.7476 45.2023 64.5449 43.8504 64.3715 42.3945Z" fill="white"/>
</svg>
