<svg width="50" height="28" viewBox="0 0 50 28" fill="none" xmlns="http://www.w3.org/2000/svg">
<path d="M12.2341 25.5308C12.2341 24.8214 12.2341 24.1597 12.2341 23.4423C12.066 23.4423 11.9138 23.4423 11.7537 23.4423C8.33489 23.4423 4.92407 23.4423 1.50524 23.4423C0.368304 23.4503 0 23.0756 0 21.9436C0 15.1678 0 8.38407 0 1.60827C0 0.579943 0.392324 0.181366 1.41717 0.181366C11.2653 0.181366 21.1135 0.181366 30.9616 0.181366C31.9544 0.181366 32.3467 0.571971 32.3467 1.55247C32.3467 8.38407 32.3467 15.2157 32.3467 22.0473C32.3467 23.0517 31.9544 23.4503 30.9376 23.4503C27.4947 23.4503 24.0519 23.4503 20.609 23.4503C20.4489 23.4503 20.2968 23.4503 20.1126 23.4503C20.1126 24.1597 20.1126 24.8134 20.1126 25.5308C20.2648 25.5308 20.4009 25.5308 20.545 25.5308C21.3857 25.5308 22.2264 25.5229 23.0671 25.5308C23.7236 25.5388 24.212 26.0251 24.212 26.6548C24.212 27.2925 23.7236 27.7868 23.0671 27.7868C18.4633 27.7868 13.8595 27.7868 9.25565 27.7868C8.61512 27.7868 8.14273 27.3085 8.13473 26.6787C8.12672 26.033 8.5911 25.5388 9.25565 25.5308C10.2325 25.5229 11.2093 25.5308 12.2341 25.5308ZM2.25787 2.46122C2.25787 8.72685 2.25787 14.9367 2.25787 21.1465C11.5616 21.1465 20.8252 21.1465 30.1449 21.1465C30.1449 20.9871 30.1449 20.8436 30.1449 20.7001C30.1449 14.7852 30.1369 8.87034 30.1529 2.95546C30.1529 2.54094 30.0328 2.45325 29.6405 2.45325C20.6731 2.46122 11.7057 2.46122 2.73826 2.46122C2.57813 2.46122 2.418 2.46122 2.25787 2.46122ZM17.8628 25.5149C17.8628 24.8054 17.8628 24.1518 17.8628 23.4742C16.7338 23.4742 15.6209 23.4742 14.5 23.4742C14.5 24.1677 14.5 24.8373 14.5 25.5149C15.6289 25.5149 16.7338 25.5149 17.8628 25.5149Z" fill="#FF2F00"/>
<path d="M47.4151 6.59843C47.4151 6.60641 47.4151 6.60641 47.4151 6.59843V6.59843ZM47.4151 6.59843C47.4151 6.60641 47.4151 6.60641 47.4151 6.59843V6.59843ZM46.7666 0.00597865C43.6199 -0.00199288 40.4653 -0.00199288 37.3187 0.00597865C35.8775 0.00597865 34.9568 0.946619 34.9568 2.38947C34.9568 6.25566 34.9568 10.1219 34.9568 13.988C34.9568 17.8542 34.9568 21.7204 34.9568 25.5866C34.9568 27.0454 35.8856 27.9861 37.3508 27.994C40.4974 28.002 43.644 28.002 46.7986 27.994C48.2558 27.9861 49.1926 27.0295 49.1926 25.5786C49.1926 17.8622 49.1926 10.1378 49.1926 2.42135C49.1846 0.930676 48.2638 0.00597865 46.7666 0.00597865ZM37.5269 1.75972C40.5534 1.75972 43.5799 1.75972 46.6144 1.75972C47.3751 1.75972 47.5192 1.93509 47.4071 2.73224H36.7503C36.6302 1.93509 36.7743 1.75972 37.5269 1.75972ZM46.6625 26.2403C43.6119 26.2403 40.5534 26.2403 37.4949 26.2403C36.8303 26.2403 36.7102 26.1127 36.7102 25.4431C36.7102 19.321 36.7102 13.1909 36.7102 7.06875V6.59046C36.7102 6.00854 36.7343 5.09181 36.7343 4.51786H47.4391C47.4391 5.02804 47.4391 6.09623 47.4231 6.59046C47.4311 6.73395 47.4471 6.86947 47.4471 7.01295C47.4471 13.167 47.4471 19.313 47.4471 25.467C47.4391 26.0968 47.295 26.2403 46.6625 26.2403ZM47.4151 6.59843C47.4151 6.60641 47.4151 6.60641 47.4151 6.59843V6.59843Z" fill="#FF2F00"/>
<path d="M43.6922 12.609C43.6922 13.5018 42.9716 14.2192 42.0749 14.2192C41.1781 14.2192 40.4575 13.5018 40.4575 12.609C40.4575 11.7242 41.1781 10.9987 42.0749 10.9987C42.9636 10.9987 43.6922 11.7242 43.6922 12.609Z" fill="#FF2F00"/>
<path d="M42.0588 20.8754C41.138 20.8754 40.2172 20.8834 39.2965 20.8754C38.8801 20.8675 38.5839 20.6602 38.4558 20.2616C38.3437 19.9109 38.4318 19.5841 38.72 19.3688C38.8881 19.2413 39.1283 19.1456 39.3365 19.1456C41.162 19.1297 42.9875 19.1297 44.821 19.1377C45.3655 19.1377 45.7178 19.5043 45.7178 20.0065C45.7178 20.5088 45.3815 20.8595 44.821 20.8754C43.9003 20.8914 42.9795 20.8754 42.0588 20.8754Z" fill="#FF2F00"/>
<path d="M42.0589 24.5344C41.1781 24.5344 40.2974 24.5344 39.4167 24.5344C38.7841 24.5344 38.3998 24.1916 38.4078 23.6575C38.4158 23.1473 38.8082 22.8046 39.4007 22.8046C41.1861 22.7966 42.9716 22.7966 44.7651 22.8046C45.2455 22.8046 45.5738 23.0437 45.6778 23.4343C45.7819 23.801 45.6378 24.2155 45.3015 24.3989C45.1334 24.4866 44.9252 24.5344 44.7331 24.5344C43.8523 24.5424 42.9556 24.5344 42.0589 24.5344Z" fill="#FF2F00"/>
</svg>
