<svg width="25" height="27" viewBox="0 0 25 27" fill="none" xmlns="http://www.w3.org/2000/svg">
<path d="M16.7076 26.3574C18.5792 26.3632 19.9308 26.034 21.1843 25.3408C22.3049 24.7227 23.1945 23.8216 24.0898 22.9436C24.6385 22.4006 24.7079 21.7133 24.3613 21.0259C24.1995 20.7024 23.9974 20.3731 23.7432 20.1305C22.9576 19.3854 22.1489 18.6518 21.3114 17.9586C20.907 17.6236 20.4449 17.3463 19.9713 17.1211C18.9142 16.6185 17.9091 16.7398 17.0253 17.537C16.5459 17.9644 16.0665 18.4034 15.6159 18.8597C14.9227 19.5587 14.1141 19.7493 13.2187 19.3681C12.7508 19.1717 12.3003 18.9175 11.8902 18.6229C10.5154 17.6294 9.40634 16.3528 8.36082 15.03C7.7081 14.2098 7.10158 13.3491 6.70879 12.3671C6.58171 12.0494 6.47774 11.7086 6.42575 11.3736C6.27557 10.461 6.65103 9.77935 7.38462 9.24215C7.95648 8.82625 8.49946 8.35837 9.0251 7.87893C9.59696 7.35329 9.85112 6.67168 9.76447 5.89765C9.72404 5.52219 9.63162 5.13517 9.48721 4.78282C8.89802 3.41383 8.07201 2.18347 7.14779 1.01665C6.98028 0.808697 6.77811 0.623855 6.56438 0.462117C5.7788 -0.150175 5.01055 -0.155951 4.23652 0.456341C3.64156 0.93 3.05237 1.40944 2.50362 1.93508C0.718731 3.65643 -0.049522 5.7879 0.002465 8.23707C0.0486757 10.3454 0.741836 12.2747 1.71804 14.1116C3.02349 16.5492 4.73906 18.6865 6.63948 20.6793C8.17598 22.2909 9.84534 23.7292 11.7977 24.8209C13.4556 25.7509 15.2173 26.3459 16.7076 26.3574Z" fill="#FF2F00"/>
</svg>
