<svg width="57" height="57" viewBox="0 0 57 57" fill="none" xmlns="http://www.w3.org/2000/svg">
<rect y="7" width="50" height="50" rx="10" fill="black"/>
<rect x="7" width="50" height="50" rx="10" fill="#FF2F00"/>
<path d="M32.5185 6.00001C42.7419 6.00902 51.009 14.3843 51 24.7069C50.991 34.714 42.5796 42.9901 32.4824 43.0081C22.304 43.0172 13.9017 34.5337 14.0009 24.2652C14.1 14.2942 22.4573 5.99099 32.5185 6.00001ZM32.5275 41.5477C41.9395 41.5296 49.5665 33.8756 49.5575 24.4725C49.5395 15.0605 41.8674 7.41542 32.4193 7.4605C22.7999 7.50558 15.3802 15.4481 15.4614 24.6528C15.5335 33.9567 23.1695 41.5657 32.5275 41.5477Z" fill="white"/>
<path d="M32.5005 38.5006C24.7833 38.5006 18.5176 32.2349 18.5266 24.5087C18.5266 16.7645 24.8103 10.4898 32.5365 10.4988C40.2627 10.5078 46.5104 16.8186 46.5104 24.6169C46.5014 32.2349 40.1816 38.5006 32.5005 38.5006ZM32.4824 37.0671C39.4153 37.0581 45.0499 31.4235 45.0409 24.5087C45.0409 17.5398 39.4153 11.9503 32.4013 11.9593C25.5406 11.9683 19.9601 17.63 19.9691 24.5718C19.9691 31.4325 25.6307 37.0761 32.4824 37.0671Z" fill="white"/>
<path d="M31.7791 31.8382C30.6071 31.6579 29.5523 31.2973 28.6778 30.531C27.9025 29.8548 27.4066 29.0164 27.3616 27.9616C27.3435 27.4567 27.596 27.1322 28.0197 27.0961C28.4254 27.06 28.813 27.3666 28.795 27.8444C28.7589 29.1246 30.4358 30.2785 31.7611 30.3056C31.7611 28.6287 31.7611 26.9428 31.7611 25.2119C31.4996 25.1578 31.2292 25.1037 30.9587 25.0316C29.9129 24.7701 28.9843 24.3013 28.2721 23.4809C26.8837 21.8762 27.0911 19.7576 28.768 18.3872C29.5072 17.7832 30.3547 17.4226 31.2832 17.2423C31.4455 17.2153 31.5988 17.1702 31.7881 17.1341C31.7881 16.6473 31.7791 16.1875 31.7881 15.7187C31.7971 15.2589 32.0766 14.9344 32.4643 14.9163C32.87 14.8893 33.2035 15.2229 33.2306 15.6917C33.2486 16.0342 33.2576 16.3858 33.2306 16.7284C33.2035 17.071 33.3388 17.1972 33.6723 17.2513C34.7812 17.4316 35.7639 17.8824 36.5663 18.6938C37.1793 19.3068 37.5489 20.0461 37.6481 20.9206C37.7112 21.4525 37.4588 21.8492 37.017 21.8942C36.5482 21.9483 36.2597 21.6598 36.2056 21.1009C36.1155 20.1452 35.5295 19.5502 34.7361 19.1355C34.2944 18.9011 33.7895 18.7749 33.2666 18.5856C33.2666 20.3797 33.2666 22.0836 33.2666 23.7153C34.0149 23.9858 34.7452 24.1571 35.4033 24.4997C36.7736 25.2119 37.6932 26.3118 37.6391 27.9255C37.576 29.6294 36.5122 30.6842 35.0336 31.3424C34.4927 31.5858 33.8977 31.703 33.2396 31.9103C33.2396 32.316 33.2396 32.7938 33.2396 33.2716C33.2396 33.6323 33.0953 33.9208 32.7437 34.047C32.2659 34.2183 31.8152 33.8757 31.7971 33.3348C31.7881 33.0913 31.7971 32.8569 31.7971 32.6135C31.7791 32.3611 31.7791 32.1267 31.7791 31.8382ZM31.7701 18.6307C30.9136 18.7749 30.1653 19.0544 29.5523 19.6224C28.5786 20.5149 28.5516 21.741 29.4892 22.6696C30.1203 23.2916 30.8956 23.5801 31.7701 23.7153C31.7701 22.0204 31.7701 20.3526 31.7701 18.6307ZM33.2666 30.4408C33.8707 30.1974 34.4026 30.0261 34.8804 29.7737C35.4664 29.4672 35.9172 28.9984 36.1155 28.3492C36.5482 26.9428 34.8443 25.1488 33.2666 25.3561C33.2666 27.006 33.2666 28.6468 33.2666 30.4408Z" fill="white"/>
</svg>
