<svg width="57" height="57" viewBox="0 0 57 57" fill="none" xmlns="http://www.w3.org/2000/svg">
<rect y="7" width="50" height="50" rx="10" fill="black"/>
<rect x="7" width="50" height="50" rx="10" fill="#FF2F00"/>
<path d="M35.6559 21.0871L30.0879 26.3462L27.4156 23.597C27.1194 23.292 26.6316 23.2851 26.3269 23.5813C26.0219 23.8779 26.015 24.3654 26.3112 24.6704L29.5162 27.9605C29.814 28.26 30.2951 28.2703 30.6053 27.9834L36.7296 22.2069C36.8783 22.0666 36.9652 21.8729 36.9709 21.6687C36.9767 21.4645 36.901 21.2663 36.7604 21.1178C36.4623 20.808 35.9709 20.7944 35.6559 21.0871Z" fill="white"/>
<path d="M31.5242 12.993C25.1607 12.993 19.9863 18.1674 19.9863 24.531C19.9863 30.8948 25.1607 36.0692 31.5242 36.0692C37.8881 36.0692 43.0625 30.8948 43.0625 24.531C43.0625 18.1674 37.8881 12.993 31.5242 12.993ZM31.5242 34.5246C26.0102 34.5246 21.5309 30.0375 21.5309 24.531C21.5309 19.0245 26.0102 14.5376 31.5242 14.5376C37.0437 14.5376 41.5179 19.0118 41.5179 24.531C41.5179 30.0501 37.0437 34.5246 31.5242 34.5246Z" fill="white"/>
<path d="M47.4027 20.2835L47.6576 15.7038C47.6754 15.3964 47.5083 15.1077 47.2329 14.9701L43.1551 12.9082L41.0932 8.8304C40.9529 8.55739 40.666 8.39116 40.3595 8.40564L35.7719 8.65302L31.9491 6.12738C31.6914 5.95754 31.3575 5.95754 31.0995 6.12738L27.2767 8.65302L22.6972 8.3981C22.3895 8.38 22.1011 8.54713 21.9636 8.82286L19.9013 12.9006L15.8238 14.9626C15.5505 15.1026 15.3846 15.3895 15.3991 15.6963L15.6537 20.276L13.1284 24.0988C12.9585 24.3565 12.9585 24.6904 13.1284 24.9484L15.6462 28.7788L15.3912 33.3585C15.3734 33.6659 15.5403 33.9546 15.816 34.0922L19.8938 36.1541L21.9557 40.2319C22.0957 40.5052 22.3826 40.6711 22.6894 40.6567L27.2691 40.4017L31.092 42.9271C31.3481 43.1023 31.6854 43.1023 31.9415 42.9271L35.7644 40.4017L40.3441 40.6567C40.6515 40.6745 40.9399 40.5073 41.0778 40.2319L43.1397 36.1541L47.2175 34.0922C47.4905 33.9519 47.6567 33.6653 47.6423 33.3585L47.3873 28.7788L49.9127 24.9559C50.0825 24.6983 50.0825 24.364 49.9127 24.1064L47.4027 20.2835ZM45.9661 28.1455C45.872 28.2837 45.8283 28.4499 45.8428 28.6168L46.082 32.9491L42.2284 34.8952C42.0815 34.9688 41.9623 35.0883 41.8887 35.2352L39.9423 39.0888L35.6099 38.8496C35.444 38.8436 35.2802 38.8864 35.1387 38.973L31.5243 41.3596L27.9102 38.973C27.7847 38.8882 27.6369 38.8424 27.4854 38.8418H27.4468L23.1142 39.0813L21.168 35.2274C21.0944 35.0805 20.9753 34.9613 20.828 34.8877L16.9666 32.9491L17.2061 28.6168C17.2122 28.4508 17.169 28.287 17.0824 28.1455L14.6962 24.5311L17.0824 20.9168C17.1769 20.7789 17.2206 20.6124 17.2061 20.4458L16.9666 16.1132L20.8205 14.1671C20.9674 14.0934 21.0866 13.9743 21.1602 13.8274L23.1063 9.97345L27.439 10.213C27.6046 10.2187 27.7684 10.1759 27.9102 10.0893L31.5243 7.70304L35.1387 10.0893C35.2768 10.1837 35.4434 10.2275 35.6099 10.213L39.9423 9.97345L41.8887 13.8274C41.9623 13.9743 42.0815 14.0934 42.2284 14.1671L46.082 16.1132L45.8428 20.4458C45.8367 20.6115 45.8799 20.7753 45.9661 20.9168L48.3527 24.5311L45.9661 28.1455Z" fill="white"/>
</svg>
