<svg width="57" height="57" viewBox="0 0 57 57" fill="none" xmlns="http://www.w3.org/2000/svg">
<rect y="7" width="50" height="50" rx="10" fill="black"/>
<rect x="7" width="50" height="50" rx="10" fill="#FF2F00"/>
<path d="M45.85 15.1334H36.2833V14.45C36.2793 11.0551 33.5283 8.30405 30.1333 8.30005H17.15C13.755 8.30405 11.004 11.0551 11 14.45V22.65C11.004 26.045 13.755 28.796 17.15 28.8H17.8333V34.2667C17.8333 34.543 17.9998 34.7922 18.2551 34.898C18.5103 35.0038 18.8043 34.945 18.9998 34.7499L24.9496 28.8H26.7167V29.4834C26.7207 32.8784 29.4717 35.6294 32.8667 35.6334H36.6837L44.0002 42.9499C44.1957 43.145 44.4897 43.2038 44.7449 43.098C45.0002 42.9922 45.1667 42.743 45.1667 42.4667V35.6334H45.85C49.245 35.6294 51.996 32.8784 52 29.4834V21.2834C51.996 17.8884 49.245 15.1374 45.85 15.1334ZM24.6667 27.4334C24.4855 27.4334 24.3117 27.5055 24.1835 27.6336L19.2 32.6171V28.1167C19.2 27.7393 18.894 27.4334 18.5167 27.4334H17.15C14.5094 27.4304 12.3697 25.2906 12.3667 22.65V14.45C12.3697 11.8095 14.5094 9.66972 17.15 9.66672H30.1333C32.7739 9.66972 34.9137 11.8095 34.9167 14.45V15.1334H32.8667C29.4717 15.1374 26.7207 17.8884 26.7167 21.2834V27.4334H24.6667ZM50.6333 29.4834C50.6303 32.124 48.4906 34.2637 45.85 34.2667H44.4833C44.106 34.2667 43.8 34.5727 43.8 34.95V40.8171L37.4498 34.4669C37.3217 34.3388 37.1478 34.2667 36.9667 34.2667H32.8667C30.2261 34.2637 28.0863 32.124 28.0833 29.4834V21.2834C28.0863 18.6428 30.2261 16.5031 32.8667 16.5H45.85C48.4906 16.5031 50.6303 18.6428 50.6333 21.2834V29.4834Z" fill="white"/>
<path d="M47.2167 20.6H31.5C31.1226 20.6 30.8167 20.9059 30.8167 21.2833C30.8167 21.6607 31.1226 21.9666 31.5 21.9666H47.2167C47.594 21.9666 47.9 21.6607 47.9 21.2833C47.9 20.9059 47.594 20.6 47.2167 20.6Z" fill="white"/>
<path d="M47.2167 24.7001H31.5C31.1226 24.7001 30.8167 25.006 30.8167 25.3834C30.8167 25.7608 31.1226 26.0667 31.5 26.0667H47.2167C47.594 26.0667 47.9 25.7608 47.9 25.3834C47.9 25.006 47.594 24.7001 47.2167 24.7001Z" fill="white"/>
<path d="M47.2167 28.8H31.5C31.1226 28.8 30.8167 29.106 30.8167 29.4834C30.8167 29.8608 31.1226 30.1667 31.5 30.1667H47.2167C47.594 30.1667 47.9 29.8608 47.9 29.4834C47.9 29.106 47.594 28.8 47.2167 28.8Z" fill="white"/>
<path d="M15.1001 15.1334H29.4501C29.8274 15.1334 30.1334 14.8274 30.1334 14.4501C30.1334 14.0727 29.8274 13.7667 29.4501 13.7667H15.1001C14.7227 13.7667 14.4167 14.0727 14.4167 14.4501C14.4167 14.8274 14.7227 15.1334 15.1001 15.1334Z" fill="white"/>
<path d="M25.3501 17.8667H15.1001C14.7227 17.8667 14.4167 18.1727 14.4167 18.55C14.4167 18.9274 14.7227 19.2334 15.1001 19.2334H25.3501C25.7274 19.2334 26.0334 18.9274 26.0334 18.55C26.0334 18.1727 25.7274 17.8667 25.3501 17.8667Z" fill="white"/>
<path d="M24.6667 21.9668H15.1001C14.7227 21.9668 14.4167 22.2728 14.4167 22.6501C14.4167 23.0275 14.7227 23.3335 15.1001 23.3335H24.6667C25.0441 23.3335 25.3501 23.0275 25.3501 22.6501C25.3501 22.2728 25.0441 21.9668 24.6667 21.9668Z" fill="white"/>
</svg>
