<svg width="57" height="57" viewBox="0 0 57 57" fill="none" xmlns="http://www.w3.org/2000/svg">
<rect y="7" width="50" height="50" rx="10" fill="black"/>
<rect x="7" width="50" height="50" rx="10" fill="#FF2F00"/>
<path d="M48.3833 27.5833C48.5469 27.5833 48.7037 27.5184 48.8194 27.4027C48.935 27.2871 49 27.1302 49 26.9667V22.0333C49 21.8698 48.935 21.7129 48.8194 21.5973C48.7037 21.4816 48.5469 21.4167 48.3833 21.4167H44.9713C44.5965 19.6481 43.8989 17.9638 42.9135 16.4482L45.3234 14.0327C45.4389 13.9171 45.5037 13.7604 45.5037 13.597C45.5037 13.4337 45.4389 13.277 45.3234 13.1614L41.8393 9.67718C41.7236 9.56176 41.567 9.49694 41.4036 9.49694C41.2402 9.49694 41.0835 9.56176 40.9679 9.67718L38.5518 12.0865C37.0362 11.1011 35.3519 10.4035 33.5833 10.0287V6.61667C33.5833 6.45312 33.5184 6.29626 33.4027 6.18062C33.2871 6.06497 33.1302 6 32.9667 6H28.0333C27.8698 6 27.7129 6.06497 27.5973 6.18062C27.4816 6.29626 27.4167 6.45312 27.4167 6.61667V10.0287C25.6481 10.4035 23.9638 11.1011 22.4482 12.0865L20.0327 9.67657C19.9171 9.56115 19.7604 9.49632 19.597 9.49632C19.4337 9.49632 19.277 9.56115 19.1614 9.67657L15.6772 13.1607C15.5618 13.2764 15.4969 13.433 15.4969 13.5964C15.4969 13.7598 15.5618 13.9165 15.6772 14.0321L18.0871 16.4476C17.1014 17.9634 16.4036 19.6479 16.0287 21.4167H12.6167C12.4531 21.4167 12.2963 21.4816 12.1806 21.5973C12.065 21.7129 12 21.8698 12 22.0333V26.9667C12 27.1302 12.065 27.2871 12.1806 27.4027C12.2963 27.5184 12.4531 27.5833 12.6167 27.5833H16.0287C16.4035 29.3519 17.1011 31.0362 18.0865 32.5518L15.6766 34.9673C15.5611 35.0829 15.4963 35.2396 15.4963 35.403C15.4963 35.5663 15.5611 35.723 15.6766 35.8387L19.1607 39.3228C19.2764 39.4382 19.433 39.5031 19.5964 39.5031C19.7598 39.5031 19.9165 39.4382 20.0321 39.3228L22.4476 36.9129C23.9634 37.8986 25.6479 38.5964 27.4167 38.9713V42.3833C27.4167 42.5469 27.4816 42.7037 27.5973 42.8194C27.7129 42.935 27.8698 43 28.0333 43H32.9667C33.1302 43 33.2871 42.935 33.4027 42.8194C33.5184 42.7037 33.5833 42.5469 33.5833 42.3833V38.9713C35.3513 38.595 37.0349 37.8964 38.55 36.9104L43.5814 41.9418C44.1605 42.5159 44.9434 42.8371 45.7588 42.8354C46.5742 42.8336 47.3557 42.5089 47.9323 41.9323C48.5089 41.3557 48.8336 40.5742 48.8354 39.7588C48.8371 38.9434 48.5159 38.1605 47.9418 37.5814L42.9104 32.55C43.8964 31.0349 44.595 29.3513 44.9713 27.5833H48.3833ZM47.0698 41.0698C46.898 41.2417 46.6941 41.378 46.4696 41.4709C46.2451 41.5639 46.0045 41.6118 45.7616 41.6118C45.5186 41.6118 45.278 41.5639 45.0535 41.4709C44.8291 41.378 44.6251 41.2417 44.4533 41.0698L32.6454 29.2625C32.3586 28.9761 32.0179 28.7493 31.643 28.5952C31.2682 28.4411 30.8665 28.3627 30.4612 28.3646C30.3325 28.3646 30.2041 28.3722 30.0763 28.3875C29.2763 28.4836 28.4649 28.382 27.7132 28.0918C26.9614 27.8015 26.2924 27.3314 25.7645 26.7226C25.2366 26.1138 24.866 25.3848 24.6852 24.5996C24.5044 23.8143 24.5189 22.9967 24.7274 22.2183L27.4475 24.9391C27.5631 25.0547 27.7199 25.1197 27.8835 25.1198H30.5C30.6636 25.1198 30.8204 25.0548 30.9361 24.9391C31.0517 24.8235 31.1167 24.6666 31.1167 24.5031V21.8835C31.1166 21.7199 31.0516 21.5631 30.936 21.4475L28.2183 18.7274C28.9965 18.5194 29.8139 18.5053 30.5988 18.6863C31.3837 18.8673 32.1123 19.238 32.7208 19.7658C33.3293 20.2936 33.7992 20.9625 34.0893 21.714C34.3794 22.4654 34.4809 23.2766 34.385 24.0763C34.3255 24.5429 34.3734 25.0169 34.5251 25.4622C34.6767 25.9074 34.9281 26.3121 35.2601 26.6454L47.0698 38.4533C47.2417 38.6251 47.378 38.8291 47.4709 39.0535C47.5639 39.278 47.6118 39.5186 47.6118 39.7616C47.6118 40.0045 47.5639 40.2451 47.4709 40.4696C47.378 40.6941 47.2417 40.898 47.0698 41.0698ZM36.1345 25.7765C35.935 25.5749 35.7843 25.3303 35.6938 25.0615C35.6034 24.7927 35.5757 24.5068 35.6128 24.2256C35.7449 23.1295 35.5802 22.018 35.1357 21.0073C34.6913 19.9967 33.9835 19.124 33.0863 18.4805C32.1892 17.837 31.1356 17.4464 30.0358 17.3495C28.9361 17.2525 27.8304 17.4528 26.8345 17.9294C26.7457 17.9721 26.6683 18.0354 26.609 18.1141C26.5496 18.1929 26.51 18.2847 26.4935 18.3818C26.4769 18.479 26.4839 18.5787 26.5139 18.6727C26.5438 18.7666 26.5958 18.852 26.6656 18.9216L29.8833 22.1388V23.8833H28.1388L24.9216 20.6656C24.852 20.5958 24.7666 20.5438 24.6727 20.5139C24.5787 20.4839 24.479 20.4769 24.3818 20.4935C24.2847 20.51 24.1929 20.5496 24.1141 20.609C24.0354 20.6683 23.9721 20.7457 23.9294 20.8345C23.453 21.8301 23.2527 22.9354 23.3495 24.0349C23.4463 25.1344 23.8367 26.1877 24.4798 27.0847C25.1229 27.9817 25.9951 28.6895 27.0053 29.1341C28.0156 29.5787 29.1266 29.7438 30.2225 29.6122C30.5037 29.5752 30.7897 29.603 31.0585 29.6936C31.3273 29.7841 31.5718 29.9349 31.7734 30.1345L34.9456 33.306C32.85 34.3647 30.4457 34.6418 28.1642 34.0878C25.8826 33.5338 23.8732 32.1849 22.4965 30.2831C21.1198 28.3813 20.4658 26.0511 20.6521 23.7107C20.8383 21.3703 21.8525 19.1728 23.5127 17.5127C25.1728 15.8525 27.3703 14.8383 29.7107 14.6521C32.0511 14.4658 34.3813 15.1198 36.2831 16.4965C38.1849 17.8732 39.5338 19.8826 40.0878 22.1642C40.6418 24.4457 40.3647 26.85 39.306 28.9456L36.1345 25.7765ZM43.8539 26.8655C43.5565 28.5675 42.9339 30.1963 42.02 31.6626L40.2168 29.8595C41.5105 27.5151 41.9143 24.7825 41.3539 22.1642C40.7935 19.546 39.3066 17.218 37.1666 15.6086C35.0267 13.9992 32.3776 13.2166 29.7066 13.4046C27.0356 13.5927 24.5224 14.7388 22.629 16.6321C20.7357 18.5254 19.5896 21.0387 19.4015 23.7097C19.2135 26.3807 19.9962 29.0298 21.6056 31.1697C23.215 33.3096 25.5429 34.7966 28.1612 35.357C30.7794 35.9174 33.512 35.5136 35.8564 34.2199L37.6595 36.023C36.1932 36.9369 34.5645 37.5596 32.8625 37.857C32.7196 37.8815 32.59 37.9555 32.4963 38.066C32.4026 38.1765 32.3508 38.3164 32.35 38.4613V41.7667H28.65V38.4613C28.6499 38.3159 28.5984 38.1752 28.5047 38.0641C28.4109 37.9529 28.2809 37.8785 28.1376 37.8539C26.1923 37.5134 24.3459 36.7483 22.73 35.613C22.6112 35.5295 22.4669 35.4906 22.3222 35.5031C22.1776 35.5156 22.0421 35.5788 21.9394 35.6814L19.601 38.0155L16.9876 35.4021L19.3217 33.0637C19.4243 32.961 19.4874 32.8254 19.5 32.6808C19.5125 32.5362 19.4736 32.3918 19.3901 32.2731C18.2544 30.6562 17.4892 28.8088 17.1492 26.8625C17.1245 26.7186 17.0496 26.5882 16.9378 26.4943C16.8261 26.4005 16.6846 26.3494 16.5387 26.35H13.2333V22.65H16.5387C16.6841 22.6499 16.8248 22.5984 16.9359 22.5047C17.0471 22.4109 17.1215 22.2809 17.1461 22.1376C17.4866 20.1923 18.2517 18.3459 19.3871 16.73C19.4705 16.6112 19.5094 16.4669 19.4969 16.3222C19.4844 16.1776 19.4212 16.0421 19.3186 15.9394L16.9845 13.601L19.5979 10.9876L21.9364 13.3217C22.039 13.4243 22.1746 13.4874 22.3192 13.5C22.4638 13.5125 22.6082 13.4736 22.7269 13.3901C24.3438 12.2544 26.1912 11.4892 28.1376 11.1492C28.2814 11.1245 28.4118 11.0496 28.5057 10.9378C28.5995 10.8261 28.6506 10.6846 28.65 10.5387V7.23333H32.35V10.5387C32.3501 10.6841 32.4016 10.8248 32.4953 10.9359C32.5891 11.0471 32.7191 11.1215 32.8625 11.1461C34.8088 11.4862 36.6562 12.2513 38.2731 13.3871C38.3918 13.4705 38.5362 13.5094 38.6808 13.4969C38.8254 13.4844 38.961 13.4212 39.0637 13.3186L41.4021 10.9845L44.0155 13.5979L41.6814 15.9364C41.5788 16.039 41.5156 16.1746 41.5031 16.3192C41.4906 16.4638 41.5295 16.6082 41.613 16.7269C42.7487 18.3438 43.5138 20.1912 43.8539 22.1376C43.8785 22.2809 43.9529 22.4109 44.0641 22.5047C44.1752 22.5984 44.3159 22.6499 44.4613 22.65H47.7667V26.35H44.4613C44.3159 26.3501 44.1752 26.4016 44.0641 26.4953C43.9529 26.5891 43.8785 26.7191 43.8539 26.8625V26.8655Z" fill="white"/>
</svg>
