<?xml version="1.0" encoding="UTF-8"?>
<svg xmlns="http://www.w3.org/2000/svg" id="Icons" viewBox="0 0 74 74" width="512" height="512"><path d="M39.45,69.265h-.01A33.641,33.641,0,0,1,7.282,26.928a1,1,0,1,1,1.932.515A31.641,31.641,0,0,0,39.459,67.265a1,1,0,0,1-.009,2Z"/><path d="M12.271,19.056a1,1,0,0,1-.841-1.54,33.775,33.775,0,0,1,4.563-5.665,33.632,33.632,0,0,1,47.564,0,1,1,0,0,1-1.414,1.414,31.633,31.633,0,0,0-44.736,0,31.844,31.844,0,0,0-4.293,5.33A1,1,0,0,1,12.271,19.056Z"/><path d="M72.379,35.75a1,1,0,0,1-1-.974,31.563,31.563,0,0,0-4.234-15.013,1,1,0,1,1,1.728-1.006,33.567,33.567,0,0,1,4.505,15.967,1,1,0,0,1-.973,1.026Z"/><path d="M66.7,55.07a1,1,0,0,1-.822-1.569c.524-.758,1.025-1.567,1.488-2.405a1,1,0,1,1,1.75.968c-.495.9-1.031,1.762-1.592,2.574A1,1,0,0,1,66.7,55.07Z"/><path d="M48.23,68.16a1,1,0,0,1-.2-1.982,31.575,31.575,0,0,0,13.246-7.35,1,1,0,1,1,1.362,1.464,33.562,33.562,0,0,1-14.153,7.834A.978.978,0,0,1,48.23,68.16Z"/><path d="M70.991,46.141a1.013,1.013,0,0,1-.3-.045,1,1,0,0,1-.66-1.251A28.884,28.884,0,0,0,70.75,42a1,1,0,0,1,1.96.4c-.222,1.1-.472,2.09-.764,3.038A1,1,0,0,1,70.991,46.141Z"/><path d="M62.85,13.558H55.158a1,1,0,0,1,0-2H61.85V4.866a1,1,0,0,1,2,0v7.692A1,1,0,0,1,62.85,13.558Z"/><path d="M12.1,34.848a1,1,0,0,1-.867-.5L7.887,28.553,2.092,31.9a1,1,0,0,1-1-1.732l6.661-3.846a1,1,0,0,1,1.367.366l3.845,6.661a1,1,0,0,1-.865,1.5Z"/><path d="M54.881,72a1,1,0,0,1-.5-.134l-6.661-3.845a1,1,0,0,1-.367-1.367L51.2,59.993a1,1,0,0,1,1.733,1l-3.346,5.795,5.795,3.346a1,1,0,0,1-.5,1.866Z"/><path d="M41.7,58H37.3a1.636,1.636,0,0,1-1.575-1.2l-.8-2.953a18.737,18.737,0,0,1-5.151-2.13l-2.655,1.519a1.632,1.632,0,0,1-1.965-.264L22.03,49.854a1.635,1.635,0,0,1-.263-1.965l1.519-2.655a18.737,18.737,0,0,1-2.13-5.151l-2.952-.8A1.636,1.636,0,0,1,17,37.7V33.3a1.636,1.636,0,0,1,1.2-1.575l2.953-.8a18.737,18.737,0,0,1,2.13-5.151l-1.519-2.655a1.633,1.633,0,0,1,.264-1.965l3.115-3.116a1.631,1.631,0,0,1,1.965-.263l2.655,1.519a18.737,18.737,0,0,1,5.151-2.13l.8-2.952A1.636,1.636,0,0,1,37.3,13H41.7a1.636,1.636,0,0,1,1.575,1.2l.8,2.953a18.737,18.737,0,0,1,5.151,2.13l2.655-1.519a1.634,1.634,0,0,1,1.965.264l3.116,3.115a1.635,1.635,0,0,1,.263,1.965l-1.519,2.655a18.737,18.737,0,0,1,2.13,5.151l2.952.8A1.636,1.636,0,0,1,62,33.3V37.7a1.636,1.636,0,0,1-1.2,1.575l-2.953.8a18.737,18.737,0,0,1-2.13,5.151l1.519,2.655a1.633,1.633,0,0,1-.264,1.965L53.854,52.97a1.634,1.634,0,0,1-1.965.263l-2.655-1.519a18.737,18.737,0,0,1-5.151,2.13l-.8,2.952A1.636,1.636,0,0,1,41.7,58Zm-4.127-2h3.846l.887-3.259a1,1,0,0,1,.757-.716,16.727,16.727,0,0,0,5.6-2.316,1,1,0,0,1,1.038-.027l2.929,1.675,2.719-2.719-1.675-2.929a1,1,0,0,1,.027-1.038,16.727,16.727,0,0,0,2.316-5.6,1,1,0,0,1,.716-.757L60,37.423V33.577l-3.259-.887a1,1,0,0,1-.716-.757,16.727,16.727,0,0,0-2.316-5.6,1,1,0,0,1-.027-1.038l1.675-2.929-2.719-2.719-2.929,1.675a1,1,0,0,1-1.038-.027,16.727,16.727,0,0,0-5.6-2.316,1,1,0,0,1-.757-.716L41.423,15H37.577l-.887,3.259a1,1,0,0,1-.757.716,16.727,16.727,0,0,0-5.6,2.316,1,1,0,0,1-1.038.027l-2.929-1.675-2.719,2.719,1.675,2.929a1,1,0,0,1-.027,1.038,16.727,16.727,0,0,0-2.316,5.6,1,1,0,0,1-.716.757L19,33.577v3.846l3.259.887a1,1,0,0,1,.716.757,16.727,16.727,0,0,0,2.316,5.6,1,1,0,0,1,.027,1.038l-1.675,2.929,2.719,2.719,2.929-1.675a1,1,0,0,1,1.038.027,16.727,16.727,0,0,0,5.6,2.316,1,1,0,0,1,.757.716Z"/><path d="M39.5,48.91A13.41,13.41,0,1,1,52.91,35.5,13.424,13.424,0,0,1,39.5,48.91Zm0-24.82A11.41,11.41,0,1,0,50.91,35.5,11.422,11.422,0,0,0,39.5,24.09Z"/></svg>
