<svg width="57" height="57" viewBox="0 0 57 57" fill="none" xmlns="http://www.w3.org/2000/svg">
<rect y="7" width="50" height="50" rx="10" fill="black"/>
<rect x="7" width="50" height="50" rx="10" fill="#FF2F00"/>
<path d="M41.297 12.8059C40.3178 12.2436 39.4355 11.6231 38.466 11.1771C32.261 8.31697 25.6488 9.43193 20.6848 14.1148C20.2485 14.5317 19.7831 14.5704 19.4438 14.2408C19.0948 13.9112 19.1142 13.3876 19.502 12.9998C22.2651 10.2851 25.5615 8.63692 29.4009 8.15215C34.0934 7.56074 38.3593 8.69509 42.1599 11.5261C42.2083 11.5649 42.2665 11.5843 42.4022 11.6715C42.3732 11.2062 42.3538 10.8184 42.3344 10.4305C42.2956 9.81005 42.5961 9.38345 43.11 9.35437C43.5948 9.32528 43.9341 9.71309 43.9729 10.3142C44.031 11.3419 44.1086 12.3793 44.1571 13.407C44.1959 14.1535 43.8953 14.4541 43.1391 14.4929C42.1211 14.5413 41.1128 14.6189 40.0948 14.6771C39.4646 14.7062 39.0864 14.4153 39.0574 13.9208C39.0283 13.4167 39.3676 13.0871 39.9978 13.0386C40.3662 13.0095 40.7346 12.9901 41.1031 12.9707C41.1322 12.9416 41.1515 12.9125 41.297 12.8059Z" fill="white"/>
<path d="M14.4896 22.8308C14.0727 23.1023 13.7237 23.335 13.3747 23.558C12.8608 23.8779 12.4148 23.8198 12.1434 23.4126C11.8719 23.015 11.9882 22.54 12.473 22.22C13.3747 21.6189 14.2666 21.0178 15.178 20.4361C15.6918 20.1065 16.1184 20.1937 16.4675 20.7076C17.0686 21.6092 17.66 22.5109 18.2514 23.4126C18.5713 23.907 18.5035 24.3724 18.0866 24.6342C17.6794 24.8862 17.214 24.7602 16.8844 24.2851C16.6517 23.9555 16.4384 23.6258 16.2154 23.2865C16.1669 23.2962 16.1184 23.2962 16.0796 23.3059C16.0506 24.1494 15.9633 24.9832 15.9924 25.8267C16.1572 29.6078 17.4661 32.9333 19.9772 35.774C21.9841 38.0427 24.4661 39.5746 27.3747 40.4278C27.5686 40.486 27.7819 40.5538 27.9467 40.6702C28.2569 40.9222 28.3151 41.2713 28.1309 41.63C27.9176 42.0372 27.5492 42.1342 27.142 42.0275C25.7071 41.6688 24.3497 41.1065 23.0893 40.3599C18.2029 37.4513 15.3428 33.1563 14.5381 27.5427C14.3442 26.2145 14.4896 24.8378 14.4799 23.4901C14.4508 23.2962 14.4702 23.112 14.4896 22.8308Z" fill="white"/>
<path d="M38.0782 41.436C38.5726 41.6784 38.9701 41.882 39.3677 42.0856C39.833 42.328 39.9882 42.7158 39.8136 43.1133C39.6197 43.5399 39.135 43.7532 38.6793 43.5302C37.6322 43.0357 36.5948 42.5122 35.5671 41.9693C35.1405 41.7463 35.0145 41.3294 35.2278 40.8931C35.7319 39.8654 36.2458 38.8377 36.7693 37.8197C37.0117 37.3446 37.4286 37.1992 37.8552 37.4125C38.2721 37.6161 38.4272 38.0524 38.2333 38.5177C38.1364 38.7407 38.02 38.954 37.9134 39.1673C37.8164 39.3612 37.7292 39.5648 37.5837 39.8557C40.4051 38.6632 42.635 36.918 44.351 34.533C46.61 31.4014 47.5893 27.8917 47.3081 24.0524C47.2499 23.1895 47.0172 22.3363 46.8912 21.4734C46.8524 21.1826 46.8427 20.8529 46.9494 20.5911C47.0851 20.2712 47.4535 20.1064 47.7638 20.2518C48.0255 20.3682 48.3261 20.6299 48.394 20.882C48.8787 22.5884 49.0726 24.3335 48.9757 26.0981C48.743 30.0925 47.3275 33.6313 44.7098 36.6659C42.9937 38.6535 40.9092 40.1465 38.5048 41.1936C38.4078 41.2712 38.2915 41.3294 38.0782 41.436Z" fill="white"/>
<path d="M23.8746 30.81C23.8746 30.4416 23.8553 30.0732 23.8843 29.7047C23.9037 29.5496 24.0104 29.3848 24.1267 29.2685C25.3483 27.979 26.599 26.7186 27.8012 25.4194C28.1115 25.0898 28.3442 24.6535 28.5187 24.2269C28.732 23.6743 28.7223 23.0926 28.2569 22.6563C27.7722 22.2006 27.1323 22.1715 26.5796 22.443C26.0755 22.6951 25.6683 23.1216 25.1447 23.5288C24.786 23.3156 24.34 23.0538 23.8262 22.7532C24.5921 21.6867 25.5422 20.9984 26.8123 20.7851C28.8483 20.4457 30.5838 22.0261 30.4093 24.0427C30.3317 24.9541 29.8082 25.6618 29.2071 26.3114C28.4023 27.1646 27.5782 28.0081 26.7638 28.8613C26.6572 28.9679 26.5602 29.0939 26.3857 29.2975C27.1904 29.2975 27.8982 29.2975 28.5963 29.2975C29.2846 29.2975 29.9827 29.2975 30.7583 29.2975C30.7583 29.7823 30.7777 30.2283 30.7486 30.6646C30.7389 30.7518 30.5741 30.907 30.4868 30.907C28.3248 30.907 26.1627 30.8973 24.0007 30.8779C23.9619 30.8779 23.9522 30.8585 23.8746 30.81Z" fill="white"/>
<path d="M38.1171 20.979C36.9246 22.986 35.7999 24.8765 34.6365 26.8253C35.3345 26.8253 35.9744 26.8253 36.6822 26.8253C36.6822 26.3696 36.6919 25.9043 36.6822 25.4486C36.6725 25.1577 36.7888 25.0414 37.07 25.0511C37.5063 25.0608 37.9329 25.0511 38.437 25.0511C38.437 25.6619 38.437 26.2339 38.437 26.8544C38.8442 26.8544 39.1933 26.8544 39.5811 26.8544C39.5811 27.3973 39.5811 27.8821 39.5811 28.4153C39.2127 28.4153 38.8636 28.4153 38.4661 28.4153C38.4661 29.2394 38.4661 30.0247 38.4661 30.8488C37.8553 30.8488 37.3027 30.8488 36.7016 30.8488C36.7016 30.0538 36.7016 29.2879 36.7016 28.4541C36.4883 28.4444 36.3138 28.425 36.149 28.425C35.0825 28.425 34.016 28.4153 32.9495 28.4347C32.6102 28.4444 32.5132 28.3281 32.5035 27.9887C32.4744 27.3295 32.6005 26.7477 32.9786 26.166C33.9869 24.5857 34.9273 22.9763 35.8872 21.3669C36.052 21.0857 36.2459 20.95 36.5852 20.9693C37.0409 20.9984 37.5063 20.979 38.1171 20.979Z" fill="white"/>
</svg>
