<svg width="53" height="36" viewBox="0 0 53 36" fill="none" xmlns="http://www.w3.org/2000/svg">
<path d="M49.0309 15.2315L47.5549 9.35221C47.9518 9.26539 48.2619 8.90569 48.2619 8.48397V7.5289C48.2619 5.46993 46.5874 3.79546 44.5284 3.79546H37.8306V1.83571C37.8306 0.818629 36.9995 0 35.9949 0H1.83571C0.818629 0 0 0.818629 0 1.83571V28.4039C0 29.421 0.818629 30.2396 1.83571 30.2396H6.63585C6.63585 30.2645 6.63585 30.2769 6.63585 30.3017C6.63585 33.4025 9.16616 35.9328 12.267 35.9328C15.3679 35.9328 17.8982 33.4025 17.8982 30.3017C17.8982 30.2769 17.8982 30.2645 17.8982 30.2396H37.9422C37.9422 30.2645 37.9422 30.2769 37.9422 30.3017C37.9422 33.4025 40.4725 35.9328 43.5734 35.9328C46.6742 35.9328 49.2045 33.4025 49.2045 30.3017C49.2045 30.2769 49.2045 30.2645 49.2045 30.2396H52.107C52.6031 30.2396 53 29.8427 53 29.3466V19.8579C53 17.5261 51.2759 15.5788 49.0309 15.2315ZM37.8306 5.56916H44.5284C45.6075 5.56916 46.4882 6.4498 46.4882 7.5289V7.59092H37.8306V5.56916ZM37.8306 9.36462H45.7316L47.1828 15.1694H37.8306V9.36462ZM12.267 34.1467C10.146 34.1467 8.40955 32.4227 8.40955 30.2893C8.40955 28.1683 10.1336 26.4318 12.267 26.4318C14.388 26.4318 16.1245 28.1559 16.1245 30.2893C16.1245 32.4227 14.4004 34.1467 12.267 34.1467ZM43.5734 34.1467C41.4524 34.1467 39.7159 32.4227 39.7159 30.2893C39.7159 28.1683 41.44 26.4318 43.5734 26.4318C45.6944 26.4318 47.4308 28.1559 47.4308 30.2893C47.4308 32.4227 45.7068 34.1467 43.5734 34.1467ZM51.2263 28.4535H48.9069C48.1378 26.2457 46.0417 24.6581 43.5858 24.6581C41.1175 24.6581 39.0213 26.2457 38.2647 28.4535H37.8306V17.8362C37.8306 17.34 37.4337 16.9431 36.9375 16.9431C36.4414 16.9431 36.0445 17.34 36.0445 17.8362V28.4535H17.6005C16.8315 26.2457 14.7353 24.6581 12.2794 24.6581C9.82354 24.6581 7.71495 26.2457 6.95834 28.4535H1.83571C1.7985 28.4535 1.7737 28.4287 1.7737 28.3915V1.83571C1.7737 1.7985 1.7985 1.7737 1.83571 1.7737H35.9825C36.0197 1.7737 36.0445 1.7985 36.0445 1.83571V17.9602C36.0445 18.4564 36.4414 18.8533 36.9375 18.8533C37.4337 18.8533 37.8306 18.4564 37.8306 17.9602V16.9555H48.3239C49.6139 16.9555 50.7054 17.799 51.0899 18.9773H48.3239C47.8278 18.9773 47.4308 19.3742 47.4308 19.8703V21.7681C47.4308 23.3061 48.6836 24.5589 50.2216 24.5589H51.2263V28.4535ZM51.2263 22.7728H50.2216C49.6635 22.7728 49.2169 22.3262 49.2169 21.7681V20.7634H51.2263V22.7728Z" fill="#FF2F00"/>
<path d="M12.2671 28.4536C11.25 28.4536 10.4314 29.2722 10.4314 30.2893C10.4314 31.3063 11.25 32.125 12.2671 32.125C13.2842 32.125 14.1028 31.3063 14.1028 30.2893C14.1152 29.2846 13.2842 28.4536 12.2671 28.4536Z" fill="#FF2F00"/>
<path d="M43.5733 28.4536C42.5562 28.4536 41.7375 29.2722 41.7375 30.2893C41.7375 31.3063 42.5562 32.125 43.5733 32.125C44.5903 32.125 45.409 31.3063 45.409 30.2893C45.4214 29.2846 44.5903 28.4536 43.5733 28.4536Z" fill="#FF2F00"/>
<path d="M27.1264 8.79404C26.7791 8.44675 26.221 8.44675 25.8737 8.79404L17.9603 16.7075L13.8423 12.5895C13.495 12.2422 12.9369 12.2422 12.5896 12.5895C12.2423 12.9368 12.2423 13.495 12.5896 13.8423L17.3277 18.5804C17.5013 18.754 17.7246 18.8408 17.9603 18.8408C18.1959 18.8408 18.4192 18.754 18.5929 18.5804L27.1264 10.0468C27.4737 9.7119 27.4737 9.14134 27.1264 8.79404Z" fill="#FF2F00"/>
</svg>
