<svg width="41" height="30" viewBox="0 0 41 30" fill="none" xmlns="http://www.w3.org/2000/svg">
<path d="M39.7959 0H1.20405C0.539086 0 0 0.553984 0 1.23733V24.0231C0 24.7065 0.539086 25.2604 1.20405 25.2604H16.2543V27.5253H13.006C12.341 27.5253 11.8019 28.0793 11.8019 28.7627C11.8019 29.446 12.341 30 13.006 30H27.994C28.6589 30 29.198 29.446 29.198 28.7627C29.198 28.0793 28.6589 27.5253 27.994 27.5253H24.7457V25.2604H39.7959C40.4609 25.2604 41 24.7065 41 24.0231V1.23733C41 0.553984 40.4609 0 39.7959 0ZM22.3376 27.5254H18.6624V25.2605H22.3376V27.5254ZM38.5919 22.7859H2.40811V2.47474H38.5919V22.7859Z" fill="#FF2F00"/>
</svg>
