<svg id="Capa_1" enable-background="new 0 0 512 512" height="512" viewBox="0 0 512 512" width="512" xmlns="http://www.w3.org/2000/svg"><g><path d="m412.138 0h-312.276c-22.87 0-41.477 18.606-41.477 41.477v429.046c0 22.871 18.606 41.477 41.477 41.477h312.275c22.87 0 41.477-18.606 41.477-41.477v-429.046c0-22.871-18.606-41.477-41.476-41.477zm-312.276 20h312.275c11.842 0 21.477 9.635 21.477 21.477v50.585h-202.553v-33.783c0-5.523-4.478-10-10-10h-91.49c-5.522 0-10 4.477-10 10v33.783h-41.185v-50.585c0-11.842 9.635-21.477 21.476-21.477zm111.199 72.063h-71.49v-23.784h71.49zm201.077 399.937h-312.276c-11.842 0-21.477-9.635-21.477-21.477v-358.46h355.229v358.46c0 11.842-9.635 21.477-21.476 21.477z"/><path d="m256 207.015c-50.004 0-90.685 40.641-90.685 90.596s40.681 90.596 90.685 90.596c29.84 0 57.786-14.714 74.758-39.36 2.153-3.127 2.35-7.206.507-10.526-1.845-3.32-5.414-5.322-9.203-5.135-.495.022-.993.035-1.494.035-17.417 0-31.586-14.149-31.586-31.54s14.169-31.54 31.586-31.54c1.833 0 3.672.158 5.467.47 3.743.649 7.528-.875 9.775-3.938 2.246-3.063 2.563-7.133.82-10.506-15.671-30.317-46.567-49.152-80.63-49.152zm12.981 94.667c0 22.303 14.253 41.343 34.136 48.505-12.837 11.479-29.559 18.021-47.117 18.021-38.976 0-70.685-31.669-70.685-70.596s31.709-70.596 70.685-70.596c20.827 0 40.137 9.036 53.394 24.345-23.091 5.113-40.413 25.734-40.413 50.321z"/><path d="m256 151.103c-80.868 0-146.659 65.723-146.659 146.508s65.791 146.509 146.659 146.509 146.659-65.723 146.659-146.508-65.791-146.509-146.659-146.509zm0 273.017c-69.84 0-126.659-56.751-126.659-126.508s56.819-126.509 126.659-126.509 126.659 56.751 126.659 126.508-56.819 126.509-126.659 126.509z"/><path d="m284.243 68.279h31.762c5.522 0 10-4.477 10-10s-4.478-10-10-10h-31.762c-5.522 0-10 4.477-10 10s4.478 10 10 10z"/><path d="m360.897 68.279h31.762c5.522 0 10-4.477 10-10s-4.478-10-10-10h-31.762c-5.522 0-10 4.477-10 10s4.478 10 10 10z"/></g></svg>