<svg width="35" height="39" viewBox="0 0 35 39" fill="none" xmlns="http://www.w3.org/2000/svg">
<path d="M30.7967 0H3.2609C1.4627 0 0 1.51392 0 3.37507V35.6249C0 37.4861 1.4627 39 3.2609 39H30.7967C32.5949 39 34.0576 37.4861 34.0576 35.6249V3.37507C34.0576 1.51392 32.5949 0 30.7967 0V0ZM2.17393 3.37507C2.17393 2.75468 2.6615 2.25005 3.2609 2.25005H30.7967C31.3961 2.25005 31.8837 2.75468 31.8837 3.37507V7.87486H2.17393V3.37507ZM31.8837 35.6249C31.8837 36.2453 31.3961 36.75 30.7967 36.75H3.2609C2.6615 36.75 2.17393 36.2453 2.17393 35.6249V10.1249H31.8837V35.6249Z" fill="#FF2F00"/>
<path d="M24.274 3.9375H22.1006C21.5004 3.9375 21.0137 4.44125 21.0137 5.06252C21.0137 5.6838 21.5004 6.18755 22.1006 6.18755H24.274C24.8743 6.18755 25.361 5.6838 25.361 5.06252C25.361 4.44125 24.8743 3.9375 24.274 3.9375Z" fill="#FF2F00"/>
<path d="M30.0723 3.9375H27.899C27.2987 3.9375 26.812 4.44125 26.812 5.06252C26.812 5.6838 27.2987 6.18755 27.899 6.18755H30.0723C30.6726 6.18755 31.159 5.6838 31.159 5.06252C31.159 4.44125 30.6726 3.9375 30.0723 3.9375Z" fill="#FF2F00"/>
<path d="M6.52197 23.4374C6.52197 29.4339 11.2352 34.3124 17.0288 34.3124C22.8227 34.3124 27.536 29.4339 27.536 23.4374C27.536 23.1455 27.5245 22.8563 27.5026 22.5704C27.5026 22.5689 27.5024 22.5674 27.5024 22.5662C27.072 16.9756 22.5393 12.5624 17.0288 12.5624C11.5187 12.5624 6.98597 16.9756 6.55561 22.5662C6.55532 22.5674 6.55532 22.5689 6.55532 22.5704C6.53347 22.8563 6.52197 23.1455 6.52197 23.4374ZM17.0288 32.0624C12.6206 32.0624 9.0015 28.501 8.71459 24.0126C8.94918 24.1125 9.15703 24.2446 9.3942 24.3955C10.0353 24.804 10.8336 25.3125 12.3187 25.3125C13.8039 25.3125 14.6019 24.8043 15.2433 24.3958C15.7748 24.0572 16.1586 23.8126 17.0286 23.8126C17.8985 23.8126 18.2825 24.0572 18.8141 24.3958C19.4555 24.804 20.2538 25.3125 21.7389 25.3125C23.2241 25.3125 24.0224 24.8043 24.6638 24.3958C24.9009 24.2446 25.1088 24.1125 25.3431 24.0126C25.0565 28.501 21.4374 32.0624 17.0288 32.0624ZM17.0288 14.8124C21.0507 14.8124 24.4162 17.7766 25.1933 21.7051C24.4588 21.8854 23.9554 22.205 23.5245 22.4793C22.9929 22.8179 22.6088 23.0625 21.7389 23.0625C20.869 23.0625 20.4849 22.8179 19.9534 22.4793C19.312 22.0708 18.514 21.5623 17.0286 21.5623C15.5434 21.5623 14.7454 22.0708 14.104 22.4793C13.5725 22.8179 13.1884 23.0625 12.3187 23.0625C11.4488 23.0625 11.0648 22.8179 10.5332 22.4793C10.1023 22.2047 9.59917 21.8851 8.86466 21.7051C9.64172 17.7766 13.0073 14.8124 17.0288 14.8124Z" fill="#FF2F00"/>
</svg>
