<?xml version="1.0" encoding="iso-8859-1"?>
<!-- Generator: Adobe Illustrator 19.0.0, SVG Export Plug-In . SVG Version: 6.00 Build 0)  -->
<svg version="1.1" id="Capa_1" xmlns="http://www.w3.org/2000/svg" xmlns:xlink="http://www.w3.org/1999/xlink" x="0px" y="0px"
	 viewBox="0 0 507.312 507.312" style="enable-background:new 0 0 507.312 507.312;" xml:space="preserve">
<g>
	<g>
		<g>
			<path d="M246.624,352l-43.312-43.312V249.04c5.729-1.485,11.218-3.775,16.304-6.8l47.696,47.696v57.376h32v-48h48v-32h-57.376
				l-47.696-47.696c3.025-5.086,5.315-10.575,6.8-16.304h59.648L352,246.624L374.624,224l-36.688-36.688l36.688-36.688L352,128
				l-43.312,43.312H249.04c-0.582-2.333-1.297-4.63-2.144-6.88l42.816-41.12h57.6v-32h-48v-48h-32v57.184l-39.376,37.776
				c-7.175-5.989-15.583-10.321-24.624-12.688V65.936l43.312-43.312L224,0l-36.688,36.688L150.624,0L128,22.624l43.312,43.312
				v59.648c-5.794,1.516-11.347,3.837-16.496,6.896l-47.504-45.968v-59.2h-32v49.44l-47.52-1.44l-0.96,32l57.792,1.744l47.648,46.16
				c-2.963,5.03-5.214,10.447-6.688,16.096H65.936L22.624,128L0,150.624l36.688,36.688L0,224l22.624,22.624l43.312-43.312h59.648
				c1.485,5.729,3.775,11.218,6.8,16.304l-47.696,47.696H27.312v32h48v48h32v-57.376l47.696-47.696
				c5.086,3.025,10.575,5.315,16.304,6.8v59.648L128,352l22.624,22.624l36.688-36.688L224,374.624L246.624,352z M155.312,187.312
				c0-17.673,14.327-32,32-32s32,14.327,32,32s-14.327,32-32,32S155.312,204.985,155.312,187.312z"/>
			<polygon points="459.312,427.312 459.312,379.312 427.312,379.312 427.312,427.312 379.312,427.312 379.312,459.312 
				427.312,459.312 427.312,507.312 459.312,507.312 459.312,459.312 507.312,459.312 507.312,427.312 			"/>
			
				<rect x="182.29" y="347.318" transform="matrix(0.7071 -0.7071 0.7071 0.7071 -150.4941 363.3103)" width="362.034" height="32"/>
		</g>
	</g>
</g>
<g>
</g>
<g>
</g>
<g>
</g>
<g>
</g>
<g>
</g>
<g>
</g>
<g>
</g>
<g>
</g>
<g>
</g>
<g>
</g>
<g>
</g>
<g>
</g>
<g>
</g>
<g>
</g>
<g>
</g>
</svg>
