<?xml version="1.0" encoding="UTF-8" standalone="no"?> <svg id="Layer_1" data-name="Layer 1" xmlns="http://www.w3.org/2000/svg" viewBox="0 0 128 128"><defs><style>.cls-1{fill:#2d3e50;}.cls-2{fill:#1d75b8;}</style></defs><title>a</title><path class="cls-1" d="M118.73082,54.32586c-.95121-.12592-1.90243-.23339-2.85093-.34327a52.56,52.56,0,0,0-8.14135-19.58447q.9-1.12786,1.787-2.27176c1.61409-2.07286,3.20463-4.169,4.72448-6.33326L102.207,13.74995c-2.16439,1.51965-4.26061,3.11029-6.33336,4.72458q-1.14365.88424-2.27176,1.78693A52.57536,52.57536,0,0,0,73.99395,12.1148q-.16121-1.42261-.34066-2.84562c-.32492-2.60461-.68123-5.21182-1.13718-7.81643H55.4839c-.45325,2.60461-.80965,5.21182-1.13718,7.81643q-.18076,1.42261-.33806,2.84562a52.54449,52.54449,0,0,0-19.61054,8.14666q-1.128-.90409-2.27176-1.78693C30.0537,16.86024,27.96,15.2696,25.7956,13.74995L13.74995,25.79309c1.52246,2.16429,3.113,4.26041,4.72448,6.33326q.8883,1.13989,1.787,2.26916A52.58788,52.58788,0,0,0,12.1149,54.00605c-.94861.10747-1.89451.22-2.84311.34066-2.60721.32482-5.21182.68133-7.819,1.13728V72.516c2.60721.45335,5.21182.80965,7.819,1.13728.94861.12051,1.89451.23319,2.84311.33806a52.55968,52.55968,0,0,0,8.13343,19.59209c-.6.75471-1.2,1.50943-1.787,2.27457-1.60888,2.07787-3.1941,4.17659-4.71135,6.3465L25.7956,114.24745c2.1696-1.51464,4.26853-3.09986,6.3465-4.70874.765-.58709,1.51975-1.187,2.27437-1.78713a52.57144,52.57144,0,0,0,19.56863,8.12822c.10747.94861.21745,1.89982.34327,2.84842.33014,2.60721.69175,5.21182,1.15553,7.819H72.5161c.46378-2.60721.828-5.21182,1.15814-7.819.12582-.94861.23319-1.89982.34327-2.84842a52.5767,52.5767,0,0,0,19.566-8.12822c.75461.60012,1.51193,1.2,2.27708,1.78713,2.07526,1.60888,4.17419,3.1941,6.3464,4.70874l12.043-12.04295c-1.51454-2.1699-3.09986-4.26863-4.71135-6.3465-.587-.76795-1.187-1.52246-1.78443-2.277a52.57462,52.57462,0,0,0,8.12561-19.566c.94851-.11028,1.89972-.21755,2.85093-.34327,2.60461-.33024,5.21182-.69175,7.81643-1.15573V55.484C123.94264,55.02,121.33542,54.6559,118.73082,54.32586ZM99.28008,75.5136a36.80984,36.80984,0,0,1-2.19577,5.2826A37.3515,37.3515,0,0,1,80.79891,97.08431a37.00862,37.00862,0,0,1-33.59782,0A37.35127,37.35127,0,0,1,30.91579,80.7962a36.42487,36.42487,0,0,1-2.2064-5.31909,36.9992,36.9992,0,0,1,2.22474-28.3102A37.341,37.341,0,0,1,47.167,30.93413a36.53005,36.53005,0,0,1,5.356-2.22725,37.15971,37.15971,0,0,1,22.95663.00241A36.51065,36.51065,0,0,1,80.833,30.93413,37.34171,37.34171,0,0,1,97.066,47.16691a37.09861,37.09861,0,0,1,2.21412,28.3467Z"/><polygon class="cls-2" points="65.98 40.746 67.204 36.98 64 34.652 60.796 36.98 62.02 40.746 65.98 40.746"/><polygon class="cls-2" points="89.119 53.244 89.531 49.305 85.913 47.697 83.265 50.641 85.246 54.069 89.119 53.244"/><polygon class="cls-2" points="85.33 73.986 83.354 77.417 86.007 80.357 89.622 78.742 89.204 74.805 85.33 73.986"/><polygon class="cls-2" points="62.193 87.464 60.976 91.231 64.183 93.554 67.383 91.221 66.153 87.457 62.193 87.464"/><polygon class="cls-2" points="39.034 75.004 38.628 78.943 42.249 80.545 44.893 77.597 42.905 74.172 39.034 75.004"/><polygon class="cls-2" points="42.789 54.255 44.759 50.821 42.102 47.885 38.489 49.506 38.913 53.443 42.789 54.255"/><circle class="cls-1" cx="64" cy="64" r="13.25201"/></svg>