<svg height="512pt" viewBox="0 -39 512 512" width="512pt" xmlns="http://www.w3.org/2000/svg"><path d="m412.621094 0h-313.242188c-54.796875 0-99.378906 44.582031-99.378906 99.378906v235.289063c0 11.046875 8.953125 20 20 20h58.667969v58.667969c0 11.042968 8.953125 20 20 20s20-8.957032 20-20v-58.667969h38.664062v58.667969c0 11.042968 8.953125 20 20 20s20-8.957032 20-20v-58.667969h196v58.667969c0 11.042968 8.953125 20 20 20s20-8.957032 20-20v-58.667969h58.667969c11.046875 0 20-8.953125 20-20v-235.289063c0-54.796875-44.582031-99.378906-99.378906-99.378906zm-313.242188 40h313.242188c32.742187 0 59.378906 26.636719 59.378906 59.378906v136.621094h-432v-136.621094c0-32.742187 26.636719-59.378906 59.378906-59.378906zm-59.378906 274.667969v-38.667969h432v38.667969zm0 0"/></svg>