<svg height="512" viewBox="0 0 60 60" width="512" xmlns="http://www.w3.org/2000/svg"><g id="Page-1" fill="none" fill-rule="evenodd"><g id="029---Spade" fill="rgb(0,0,0)" fill-rule="nonzero" transform="translate(-1 -1)"><path id="Shape" d="m48.651 15.205c.3742229.3748947.8822938.5853915 1.412.585.0741947.0001563.1483306-.004185.222-.013l3.745-.416c.4535981-.0494363.8768337-.251884 1.2-.574l.358-.358c.7807639-.7809997.7807639-2.0470003 0-2.828l-5.188-5.184c-.7809997-.78076388-2.0470003-.78076388-2.828 0l-.357.358c-.3216373.32171706-.5246908.74298258-.576 1.195l-.415 3.745c-.0681511.6040323.1432259 1.2061255.574 1.635zm-.44-3.27.416-3.745.359-.358 5.182 5.183-.357.358-3.748.417-1.852-1.853z"/><path id="Shape" d="m7.032 50.909c.04245224-.0002137.08485651-.0028849.127-.008.54785758-.0696034.93557058-.5701382.866-1.118-.35784437-2.7407962.58112856-5.491913 2.54-7.442l3.415-3.415c.3789722-.3923789.3735524-1.0160848-.0121814-1.4018186s-1.0094397-.3911536-1.4018186-.0121814l-3.415 3.415c-2.39852592 2.3859918-3.54833394 5.7533395-3.11 9.108.06339997.4991663.48782377.8734816.991.874z"/><path id="Shape" d="m12.218 53.975c-.3558878-.0480075-.7101911.0984991-.9282402.383833-.218049.285334-.2663588.6656775-.1265669.996463.139792.3307855.4462183.5612155.8028071.603704.464317.059222.9319215.0889482 1.4.089 2.8905783.0022228 5.6624144-1.1497091 7.7-3.2l3.415-3.414c.3789722-.3923789.3735524-1.0160848-.0121814-1.4018186s-1.0094397-.3911536-1.4018186-.0121814l-3.415 3.414c-1.9483444 1.9564464-4.6957457 2.8955299-7.434 2.541z"/><path id="Shape" d="m1.126 50.658.823 6.387c.19631381 1.5683692 1.4316308 2.8036862 3 3l6.4.824c.6732557.086134 1.3512577.1298869 2.03.131 4.2042109.0054037 8.2363551-1.6690162 11.2-4.651l4.291-4.291c1.8378892-1.8423457 1.8378892-4.8246543 0-6.667l-3.67-3.67 22.18-22.18c.3773178.2762624.8323613.4260767 1.3.428.0838698.0002954.1676833-.0043795.251-.014l6.857-.762c.5046258-.0567504.9751714-.2826828 1.335-.641l2.707-2.707c1.5597839-1.5642825 1.5597839-4.0957175 0-5.66l-8.015-8.013c-.750273-.75110817-1.768363-1.17314663-2.83-1.17314663s-2.079727.42203846-2.83 1.17314663l-2.708 2.708c-.358206.35938766-.5838436.82970104-.64 1.334l-.763 6.859c-.0583938.5502066.0910594 1.1023632.419 1.548l-22.185 22.184-3.671-3.671c-1.8426885-1.8380042-4.8253115-1.8380042-6.668 0l-4.29 4.29c-3.48572615 3.466632-5.15782475 8.3590824-4.523 13.234zm19.858-11.731 3.67-3.67 2.089 2.088-6.62 6.62c-.3951446.3780366-1.0178554.3780366-1.413 0l-.674-.673c-.187777-.1875683-.2932867-.4420908-.2932867-.7075s.1055097-.5199317.2932867-.7075zm7.175-3-2.088-2.088 17.778-17.775 1.044 1.044 1.044 1.044zm16.641-29.494c.0062109-.05279934.0297771-.1020421.067-.14l2.707-2.707c.3752171-.3761668.884691-.58757513 1.416-.58757513s1.0407829.21140833 1.416.58757513l8.008 8.014c.7801225.7828265.7801225 2.0491735 0 2.832l-2.706 2.706c-.0390367.0383088-.0896844.0625775-.144.069l-6.857.762c-.0718196.0079103-.1433055-.0175151-.194-.069l-4.413-4.413c-.053268-.0520455-.0788446-.1261807-.069-.2zm-33.446 28.115c1.0608899-1.0582274 2.7781101-1.0582274 3.839 0l3.671 3.671-2.243 2.242c-1.168509 1.1729805-1.168509 3.0700195 0 4.243l.675.674c1.1714996 1.1711458 3.0705004 1.1711458 4.242 0l2.242-2.242 3.671 3.672c1.0587777 1.0606623 1.0587777 2.7783377 0 3.839l-4.291 4.291c-3.0281032 3.044925-7.3015751 4.5058905-11.56 3.952l-6.4-.824c-.66448397-.0827819-1.1873114-.6072586-1.268-1.272l-.822-6.389c-.55495467-4.2608157.90642332-8.5370007 3.953-11.567z"/></g></g></svg>